<?xml version="1.0" encoding="utf-8"?>
<!-- Generator: Adobe Illustrator 24.0.1, SVG Export Plug-In . SVG Version: 6.00 Build 0)  -->
<svg version="1.1" id="Layer_2" xmlns="http://www.w3.org/2000/svg" xmlns:xlink="http://www.w3.org/1999/xlink" x="0px" y="0px"
	 viewBox="0 0 435.51 445.17" style="enable-background:new 0 0 435.51 445.17;" xml:space="preserve">
<style type="text/css">
	.st0{fill:#CDCCCD;}
	.st1{fill:#919191;}
	.st2{fill:#121212;}
</style>
<path class="st0" d="M424.3,224.46c0-114.33-92.68-207.01-207.01-207.01S10.27,110.13,10.27,224.46c0,0.89,0.02,1.77,0.03,2.65
	l97.82-97.82l46.78,54.58l7.56,40.59l86.59,80.41l49.9,6.19l37.12,21.49l-75.19,94.32C354.28,406.84,424.3,323.83,424.3,224.46z"/>
<path class="st1" d="M298.96,311.06l-49.9-6.19l-86.59-80.41l-7.56-40.59l-46.78-54.58l-97.82,97.82
	c1.42,113.11,93.54,204.36,206.98,204.36c14.96,0,29.55-1.6,43.61-4.62l75.19-94.32L298.96,311.06z"/>
<polygon class="st1" points="182.62,66.93 115.77,133.78 202.51,220.53 248.81,174.23 253.18,157.12 "/>
<path class="st1" d="M276.29,278.03l-19.47,19.47l19.47,14.24l-23.1,14.43c0,0-77.66-84.53-74.91-84.53
	c2.75,0,85.22-11.68,85.22-11.68L276.29,278.03z"/>
<g>
	<path class="st2" d="M276.29,278.04c49.52-59.72,2.49-101.92,2.49-101.92l-27.7-7.6c40.33-25.25,21.41-59.43,21.41-59.43
		l-89.88-42.15c11.29,32.1,0.69,53.53-30.54,74.42l-43.95-12.06c41.63,44.35,36.73,100.3,0,166.48
		C145.68,261.66,257.51,254.15,276.29,278.04z M249.53,168.09l-93.93-25.77C187.28,136.18,241.81,152.09,249.53,168.09z"/>
	<path class="st2" d="M304.08,344.08c-21.25-8.38-81-59.34-74.36-63.12c0.01-0.01,0.02-0.01,0.03-0.02
		c-0.04-0.25-0.07-0.49-0.07-0.71c-34,25.08-120.89,27.7-142.93,20.78c4.18,4.18,7.82,7.82,11.05,11.06
		c0.62,0.09,1.24,0.18,1.87,0.26c1.77,0.19,3.57,0.45,5.4,0.68c1.83,0.26,3.71,0.38,5.59,0.58c1.89,0.18,3.8,0.37,5.74,0.5
		c1.93,0.14,3.88,0.29,5.84,0.43c1.96,0.07,3.93,0.15,5.89,0.22c1.96,0.13,3.93,0.17,5.89,0.18c1.96,0.03,3.92,0.05,5.85,0.08
		c3.87-0.16,7.7-0.01,11.39-0.23c3.69-0.24,7.28-0.22,10.66-0.55c1.69-0.12,3.34-0.24,4.94-0.36c0.8-0.05,1.59-0.1,2.36-0.14
		c0.77-0.08,1.52-0.15,2.26-0.23c2.95-0.32,5.67-0.56,8.09-0.76c2.41-0.29,4.5-0.54,6.23-0.74c3.47-0.39,5.47-0.57,5.47-0.57
		s-1.9,0.59-5.27,1.55c-1.69,0.47-3.73,1.08-6.1,1.66c-2.38,0.53-5.07,1.13-8.01,1.73c-2.93,0.68-6.17,1.08-9.57,1.61
		c-3.4,0.58-7.03,0.87-10.78,1.23c-1.87,0.21-3.79,0.3-5.72,0.4c-1.94,0.11-3.9,0.21-5.87,0.27c-1.98,0-3.97,0.01-5.98,0.01
		c-2,0.01-4.01,0.01-6.02-0.1c-2.01-0.11-4.02-0.21-6.02-0.32c-2-0.18-3.98-0.36-5.96-0.53c-1.98-0.14-3.92-0.41-5.84-0.7
		c-1.92-0.29-3.82-0.49-5.68-0.85c-0.54-0.1-1.07-0.19-1.6-0.28c16.58,16.58,19.64,19.64,28.12,28.12c1.79,1.79,3.96,3.45,6.45,5
		c1.39,0.24,2.81,0.5,4.28,0.7c1.68,0.24,3.4,0.53,5.16,0.75c1.77,0.19,3.57,0.45,5.4,0.68c1.83,0.26,3.71,0.38,5.59,0.58
		c1.89,0.18,3.8,0.37,5.74,0.5c1.93,0.14,3.88,0.29,5.83,0.43c1.96,0.07,3.93,0.15,5.89,0.22c1.96,0.13,3.93,0.17,5.89,0.18
		c1.96,0.03,3.92,0.05,5.85,0.08c3.87-0.16,7.7-0.01,11.39-0.23c3.69-0.24,7.28-0.22,10.66-0.55c1.7-0.12,3.34-0.24,4.94-0.36
		c0.8-0.05,1.59-0.1,2.36-0.14c0.77-0.08,1.52-0.15,2.26-0.23c2.95-0.32,5.67-0.56,8.09-0.76c2.41-0.29,4.5-0.54,6.23-0.74
		c3.47-0.39,5.47-0.57,5.47-0.57s-1.9,0.59-5.27,1.55c-1.69,0.46-3.73,1.08-6.1,1.66c-2.38,0.53-5.07,1.13-8.01,1.73
		c-2.93,0.68-6.17,1.08-9.57,1.61c-3.4,0.58-7.03,0.87-10.78,1.23c-1.87,0.21-3.79,0.3-5.72,0.4c-1.94,0.11-3.9,0.21-5.87,0.27
		c-1.98,0-3.97,0.01-5.98,0.01c-2,0.01-4.01,0.01-6.02-0.1c-2.01-0.11-4.02-0.21-6.02-0.32c-2-0.18-3.98-0.36-5.96-0.53
		c-1.98-0.14-3.92-0.41-5.84-0.7c-1.76-0.27-3.5-0.47-5.2-0.77c43.81,14.48,129.13,9.57,168.23-9.78c-0.39-0.11-0.79-0.23-1.2-0.35
		C314.83,346.97,309.8,346.34,304.08,344.08z"/>
	<path class="st2" d="M351.2,207.2c-5.28-6.27-15.74,9.49-17.63,14.52c-1.89,5.04-23.3,52.89-37.78,59.19
		c-14.48,6.3-45.34-8.02-51-9.68c-5.67-1.66-4.41,3.13-10.7,6.72c-6.3,3.59,50.37,51.91,70.52,59.86s31.48-5.27,31.48-5.27
		s-6.3-15.74-8.19-18.89c-1.89-3.15-12.59-10.07-13.22-17.63c-0.63-7.56,38.41-58.78,44.08-64.65S354.35,210.94,351.2,207.2z"/>
</g>
</svg>
