<?xml version="1.0" encoding="UTF-8"?><svg id="Layer_2" xmlns="http://www.w3.org/2000/svg" viewBox="0 0 910.32 224.85"><defs><style>.cls-1{fill:#fff;}.cls-2{fill:#231f20;}.cls-3{fill:#414042;}.cls-4{fill:#101010;}</style></defs><g><path class="cls-3" d="M209.83,114.73c0-53.25-43.17-96.41-96.41-96.41S17,61.48,17,114.73c0,.41,.01,.82,.02,1.23l45.56-45.56,21.79,25.42,3.52,18.9,40.33,37.45,23.24,2.88,17.29,10.01-35.02,43.93c43.49-9.33,76.11-47.98,76.11-94.26Z"/><path class="cls-4" d="M151.45,155.06l-23.24-2.88-40.33-37.45-3.52-18.9-21.79-25.42L17.01,115.97c.66,52.68,43.56,95.18,96.4,95.18,6.97,0,13.76-.75,20.31-2.15l35.02-43.93-17.29-10.01Z"/><polygon class="cls-4" points="97.26 41.36 66.13 72.5 106.53 112.9 128.09 91.34 130.13 83.37 97.26 41.36"/><path class="cls-4" d="M140.89,139.68l-9.07,9.07,9.07,6.63-10.76,6.72s-36.17-39.37-34.89-39.37,39.69-5.44,39.69-5.44l5.96,22.39Z"/><g><path class="cls-1" d="M140.89,139.68c23.06-27.81,1.16-47.47,1.16-47.47l-12.9-3.54c18.79-11.76,9.97-27.68,9.97-27.68l-41.86-19.63c5.26,14.95,.32,24.93-14.22,34.66l-20.47-5.62c19.39,20.65,17.11,46.71,0,77.54,17.49-15.89,69.57-19.38,78.32-8.26Zm-12.46-51.2l-43.75-12c14.75-2.86,40.15,4.55,43.75,12Z"/><path class="cls-1" d="M153.83,170.44c-9.9-3.9-37.72-27.64-34.63-29.4,0,0,0,0,.01,0-.02-.12-.03-.23-.03-.33-15.84,11.68-56.3,12.9-66.57,9.68,1.95,1.95,3.64,3.64,5.15,5.15,.29,.04,.58,.09,.87,.12,.82,.09,1.66,.21,2.52,.32,.85,.12,1.73,.18,2.61,.27,.88,.09,1.77,.17,2.67,.23,.9,.07,1.81,.13,2.72,.2,.91,.03,1.83,.07,2.74,.1,.92,.06,1.83,.08,2.75,.08,.91,.01,1.82,.02,2.73,.04,1.8-.08,3.59,0,5.31-.11,1.72-.11,3.39-.1,4.96-.25,.79-.06,1.56-.11,2.3-.17,.37-.02,.74-.04,1.1-.07,.36-.04,.71-.07,1.05-.11,1.38-.15,2.64-.26,3.77-.36,1.12-.13,2.1-.25,2.9-.35,1.61-.18,2.55-.27,2.55-.27,0,0-.89,.28-2.45,.72-.79,.22-1.74,.5-2.84,.77-1.11,.25-2.36,.53-3.73,.81-1.37,.32-2.87,.5-4.46,.75-1.59,.27-3.27,.41-5.02,.58-.87,.1-1.76,.14-2.66,.18-.9,.05-1.81,.1-2.74,.13-.92,0-1.85,0-2.78,0-.93,0-1.87,0-2.81-.05-.94-.05-1.87-.1-2.8-.15-.93-.08-1.86-.17-2.77-.25-.92-.06-1.83-.19-2.72-.32-.89-.14-1.78-.23-2.64-.39-.25-.04-.5-.09-.74-.13,7.72,7.72,9.15,9.15,13.1,13.1,.83,.83,1.85,1.61,3.01,2.33,.65,.11,1.31,.23,1.99,.33,.78,.11,1.58,.25,2.4,.35,.82,.09,1.66,.21,2.52,.32,.85,.12,1.73,.18,2.61,.27,.88,.09,1.77,.17,2.67,.23,.9,.07,1.81,.13,2.72,.2,.91,.03,1.83,.07,2.74,.1,.92,.06,1.83,.08,2.75,.08,.91,.01,1.82,.02,2.73,.04,1.8-.08,3.59,0,5.31-.11,1.72-.11,3.39-.1,4.96-.25,.79-.06,1.56-.11,2.3-.17,.37-.02,.74-.04,1.1-.07,.36-.04,.71-.07,1.05-.11,1.38-.15,2.64-.26,3.77-.36,1.12-.13,2.1-.25,2.9-.35,1.61-.18,2.55-.27,2.55-.27,0,0-.89,.28-2.45,.72-.79,.22-1.74,.5-2.84,.77-1.11,.25-2.36,.53-3.73,.81-1.37,.32-2.87,.5-4.46,.75-1.59,.27-3.27,.41-5.02,.58-.87,.1-1.76,.14-2.66,.18-.9,.05-1.81,.1-2.74,.13-.92,0-1.85,0-2.78,0-.93,0-1.87,0-2.81-.05-.94-.05-1.87-.1-2.8-.15-.93-.08-1.86-.17-2.77-.25-.92-.06-1.83-.19-2.72-.32-.82-.12-1.63-.22-2.42-.36,20.4,6.74,60.14,4.45,78.35-4.55-.18-.05-.37-.11-.56-.17-2.01,.13-4.36-.17-7.02-1.22Z"/><path class="cls-1" d="M175.78,106.69c-2.46-2.92-7.33,4.42-8.21,6.76-.88,2.35-10.85,24.63-17.6,27.57-6.74,2.93-21.11-3.73-23.75-4.51-2.64-.77-2.05,1.46-4.99,3.13-2.93,1.67,23.46,24.18,32.84,27.88,9.38,3.7,14.66-2.46,14.66-2.46,0,0-2.93-7.33-3.81-8.8-.88-1.47-5.87-4.69-6.16-8.21-.29-3.52,17.89-27.38,20.53-30.11s-2.05-9.52-3.52-11.26Z"/></g></g><g><g><path class="cls-4" d="M249.56,113.28v-8.35h3.73v-28.28h-3.73v-8.29h23.97c5.36,0,9.32,.95,11.89,2.86,2.57,1.91,3.86,4.62,3.86,8.13,0,1.37-.11,2.56-.32,3.57-.21,1.01-.56,1.91-1.03,2.7-.47,.79-1.12,1.49-1.93,2.09-.81,.6-1.82,1.14-3.02,1.61,1.16,.34,2.25,.8,3.28,1.38,1.03,.58,1.93,1.32,2.7,2.22,.77,.9,1.38,1.96,1.83,3.18,.45,1.22,.67,2.6,.67,4.15,0,4.54-1.36,7.85-4.08,9.93-2.72,2.08-7.19,3.12-13.4,3.12h-24.42Zm17.03-36.44v9.64h3.92c1.71,0,2.87-.44,3.47-1.32,.6-.88,.9-2.09,.9-3.63s-.4-2.66-1.19-3.47c-.79-.81-1.81-1.22-3.05-1.22h-4.05Zm5.14,28.09c1.37,0,2.58-.48,3.63-1.45,1.05-.96,1.57-2.32,1.57-4.08,0-1.63-.45-2.98-1.35-4.05s-2.25-1.61-4.05-1.61h-4.95v11.18h5.14Z"/><path class="cls-4" d="M312.48,113.28h-18.77v-8.42h2.76v-31.49h-2.7v-8.29h14.91v39.78h3.79v8.42Z"/><path class="cls-4" d="M315.75,83.85c.64-.39,1.46-.83,2.44-1.35,.99-.51,2.09-1.02,3.31-1.51,1.22-.49,2.53-.9,3.92-1.22,1.39-.32,2.84-.48,4.34-.48,1.93,0,3.92,.2,5.98,.61s3.93,1.11,5.62,2.12c1.69,1.01,3.08,2.37,4.18,4.08s1.64,3.86,1.64,6.43v12.53h3.86v8.23h-13.75l-1.54-2.89c-.6,.81-1.28,1.49-2.02,2.03-.75,.54-1.52,.95-2.31,1.25-.79,.3-1.57,.51-2.35,.64s-1.44,.19-1.99,.19c-1.54,0-3.06-.21-4.56-.64-1.5-.43-2.85-1.07-4.05-1.93-1.2-.86-2.17-1.96-2.92-3.31-.75-1.35-1.12-2.97-1.12-4.85s.35-3.43,1.06-4.88c.71-1.46,1.67-2.7,2.89-3.73,1.22-1.03,2.64-1.82,4.27-2.38,1.63-.56,3.34-.83,5.14-.83,.94,0,1.79,.1,2.54,.29,.75,.19,1.39,.42,1.93,.67,.54,.26,.96,.51,1.29,.77,.32,.26,.52,.43,.61,.51v-2.25c0-1.46-.58-2.42-1.74-2.89-1.16-.47-2.61-.71-4.37-.71-1.93,0-3.7,.32-5.3,.96-1.61,.64-3.03,1.31-4.27,1.99l-2.7-7.46Zm14.27,22.3c.99,0,1.84-.24,2.57-.71,.73-.47,1.24-.94,1.54-1.41v-2.44c-.04-.08-.14-.22-.29-.42-.15-.19-.38-.4-.67-.61-.3-.21-.67-.41-1.12-.58-.45-.17-1.02-.26-1.7-.26-1.29,0-2.23,.32-2.83,.96-.6,.64-.9,1.46-.9,2.44,0,.9,.32,1.63,.96,2.18,.64,.56,1.46,.84,2.44,.84Z"/><path class="cls-4" d="M375.14,95.67c-.04-.77-.14-1.55-.29-2.35-.15-.79-.38-1.52-.67-2.19-.3-.66-.71-1.2-1.22-1.61-.51-.41-1.14-.61-1.86-.61-.94,0-1.77,.24-2.47,.71-.71,.47-1.3,1.09-1.77,1.86s-.83,1.65-1.06,2.63c-.24,.99-.35,1.99-.35,3.02,0,2.19,.6,4,1.8,5.43,1.2,1.44,2.87,2.15,5.01,2.15,1.63,0,3.04-.33,4.24-1,1.2-.66,2.31-1.55,3.34-2.67l5.66,6.56c-.77,.81-1.69,1.62-2.76,2.41-1.07,.79-2.28,1.49-3.63,2.09-1.35,.6-2.82,1.09-4.4,1.48s-3.24,.58-4.95,.58c-2.36,0-4.61-.35-6.75-1.06-2.14-.71-4.02-1.78-5.62-3.21-1.61-1.44-2.89-3.22-3.86-5.37-.96-2.14-1.45-4.65-1.45-7.52s.44-5.28,1.32-7.36c.88-2.08,2.05-3.79,3.5-5.14,1.46-1.35,3.14-2.35,5.04-2.99,1.91-.64,3.89-.96,5.94-.96,1.07,0,2.05,.13,2.92,.39,.88,.26,1.65,.58,2.31,.96,.66,.39,1.23,.79,1.7,1.22,.47,.43,.84,.79,1.09,1.09l1.09-3.08h7.58v14.53h-9.45Z"/><path class="cls-4" d="M388.57,113.28v-8.35h2.63v-31.43h-2.63v-8.42h14.85v29.05l7.46-4.43h-4.63v-8.48h18v8.48h-4.95l-4.37,2.76,8.68,12.4h3.21v8.42h-19.02v-8.42h2.7l-4.88-6.94-2.25,1.54v5.4h2.38v8.42h-17.16Z"/><path class="cls-4" d="M445.83,68.36h20.82c3.73,0,6.75,.38,9.06,1.12,2.31,.75,4.11,1.76,5.4,3.02s2.15,2.72,2.6,4.37,.67,3.4,.67,5.24c0,2.14-.45,4.01-1.35,5.59-.9,1.59-2.12,2.9-3.66,3.95-1.54,1.05-3.33,1.84-5.37,2.38-2.04,.54-4.21,.8-6.52,.8h-4.88v9.96h3.92v8.48h-20.7v-8.48h3.6v-28.02h-3.6v-8.42Zm16.77,8.35v11.18h2.89c1.88,0,3.41-.46,4.56-1.38,1.16-.92,1.74-2.24,1.74-3.95,0-1.93-.53-3.38-1.57-4.37-1.05-.99-2.52-1.48-4.4-1.48h-3.21Z"/><path class="cls-4" d="M519.23,108.85c-2.4,2.06-4.93,3.5-7.58,4.34-2.66,.84-5.66,1.25-9,1.25-2.01,0-4.03-.33-6.04-1-2.01-.66-3.82-1.69-5.43-3.08s-2.92-3.19-3.95-5.4c-1.03-2.21-1.54-4.85-1.54-7.94,0-2.61,.45-4.96,1.35-7.04,.9-2.08,2.12-3.84,3.66-5.3,1.54-1.46,3.36-2.56,5.46-3.31,2.1-.75,4.37-1.12,6.81-1.12,2.66,0,5,.39,7.04,1.16,2.03,.77,3.74,1.84,5.11,3.21,1.37,1.37,2.4,2.99,3.08,4.85,.68,1.86,1.03,3.89,1.03,6.07,0,.86-.06,1.7-.19,2.54-.13,.83-.32,1.62-.58,2.35h-20.25c.09,.43,.23,.94,.42,1.54,.19,.6,.52,1.18,1,1.74,.47,.56,1.11,1.03,1.93,1.41s1.91,.58,3.28,.58c.56,0,1.17-.02,1.83-.06,.66-.04,1.38-.17,2.15-.38,.77-.21,1.58-.52,2.44-.93,.86-.41,1.71-.97,2.57-1.7l5.4,6.23Zm-15.88-19.92c-.99,0-1.79,.19-2.41,.58s-1.11,.85-1.48,1.38c-.37,.54-.62,1.1-.77,1.7-.15,.6-.25,1.09-.29,1.48h9.7c0-.6-.06-1.21-.19-1.83-.13-.62-.35-1.18-.67-1.67-.32-.49-.79-.89-1.41-1.19-.62-.3-1.45-.45-2.47-.45Z"/><path class="cls-4" d="M522.51,83.85c.64-.39,1.46-.83,2.44-1.35,.99-.51,2.09-1.02,3.31-1.51,1.22-.49,2.53-.9,3.92-1.22,1.39-.32,2.84-.48,4.34-.48,1.93,0,3.92,.2,5.98,.61s3.93,1.11,5.62,2.12c1.69,1.01,3.08,2.37,4.18,4.08s1.64,3.86,1.64,6.43v12.53h3.86v8.23h-13.75l-1.54-2.89c-.6,.81-1.28,1.49-2.02,2.03-.75,.54-1.52,.95-2.31,1.25-.79,.3-1.57,.51-2.35,.64s-1.44,.19-1.99,.19c-1.54,0-3.06-.21-4.56-.64-1.5-.43-2.85-1.07-4.05-1.93-1.2-.86-2.17-1.96-2.92-3.31-.75-1.35-1.12-2.97-1.12-4.85s.35-3.43,1.06-4.88c.71-1.46,1.67-2.7,2.89-3.73,1.22-1.03,2.64-1.82,4.27-2.38,1.63-.56,3.34-.83,5.14-.83,.94,0,1.79,.1,2.54,.29,.75,.19,1.39,.42,1.93,.67,.54,.26,.96,.51,1.29,.77,.32,.26,.52,.43,.61,.51v-2.25c0-1.46-.58-2.42-1.74-2.89-1.16-.47-2.61-.71-4.37-.71-1.93,0-3.7,.32-5.3,.96-1.61,.64-3.03,1.31-4.27,1.99l-2.7-7.46Zm14.27,22.3c.99,0,1.84-.24,2.57-.71,.73-.47,1.24-.94,1.54-1.41v-2.44c-.04-.08-.14-.22-.29-.42-.15-.19-.38-.4-.67-.61-.3-.21-.67-.41-1.12-.58-.45-.17-1.02-.26-1.7-.26-1.29,0-2.23,.32-2.83,.96-.6,.64-.9,1.46-.9,2.44,0,.9,.32,1.63,.96,2.18,.64,.56,1.46,.84,2.44,.84Z"/><path class="cls-4" d="M578.55,113.28h-18.19v-8.42h2.83v-15.36h-2.76v-8.36h12.08l1.93,4.11c.43-.77,.88-1.5,1.35-2.18,.47-.69,1.07-1.3,1.8-1.83,.73-.54,1.63-.95,2.7-1.25,1.07-.3,2.44-.45,4.11-.45v11.57c-2.91,0-5.15,.48-6.72,1.45s-2.35,2.86-2.35,5.69v6.62h3.21v8.42Z"/><path class="cls-4" d="M605.73,113.28h-18.77v-8.42h2.76v-31.49h-2.7v-8.29h14.91v39.78h3.79v8.42Z"/><path class="cls-4" d="M624.37,68.36h20.82c3.73,0,6.75,.38,9.06,1.12,2.31,.75,4.11,1.76,5.4,3.02s2.15,2.72,2.6,4.37,.67,3.4,.67,5.24c0,2.14-.45,4.01-1.35,5.59-.9,1.59-2.12,2.9-3.66,3.95-1.54,1.05-3.33,1.84-5.37,2.38-2.04,.54-4.21,.8-6.52,.8h-4.88v9.96h3.92v8.48h-20.7v-8.48h3.6v-28.02h-3.6v-8.42Zm16.77,8.35v11.18h2.89c1.88,0,3.41-.46,4.56-1.38,1.16-.92,1.74-2.24,1.74-3.95,0-1.93-.53-3.38-1.57-4.37-1.05-.99-2.52-1.48-4.4-1.48h-3.21Z"/><path class="cls-4" d="M666.21,83.85c.64-.39,1.46-.83,2.44-1.35,.99-.51,2.09-1.02,3.31-1.51,1.22-.49,2.53-.9,3.92-1.22,1.39-.32,2.84-.48,4.34-.48,1.93,0,3.92,.2,5.98,.61s3.93,1.11,5.62,2.12c1.69,1.01,3.08,2.37,4.18,4.08s1.64,3.86,1.64,6.43v12.53h3.86v8.23h-13.75l-1.54-2.89c-.6,.81-1.28,1.49-2.02,2.03-.75,.54-1.52,.95-2.31,1.25-.79,.3-1.57,.51-2.35,.64s-1.44,.19-1.99,.19c-1.54,0-3.06-.21-4.56-.64-1.5-.43-2.85-1.07-4.05-1.93-1.2-.86-2.17-1.96-2.92-3.31-.75-1.35-1.12-2.97-1.12-4.85s.35-3.43,1.06-4.88c.71-1.46,1.67-2.7,2.89-3.73,1.22-1.03,2.64-1.82,4.27-2.38,1.63-.56,3.34-.83,5.14-.83,.94,0,1.79,.1,2.54,.29,.75,.19,1.39,.42,1.93,.67,.54,.26,.96,.51,1.29,.77,.32,.26,.52,.43,.61,.51v-2.25c0-1.46-.58-2.42-1.74-2.89-1.16-.47-2.61-.71-4.37-.71-1.93,0-3.7,.32-5.3,.96-1.61,.64-3.03,1.31-4.27,1.99l-2.7-7.46Zm14.27,22.3c.99,0,1.84-.24,2.57-.71,.73-.47,1.24-.94,1.54-1.41v-2.44c-.04-.08-.14-.22-.29-.42-.15-.19-.38-.4-.67-.61-.3-.21-.67-.41-1.12-.58-.45-.17-1.02-.26-1.7-.26-1.29,0-2.23,.32-2.83,.96-.6,.64-.9,1.46-.9,2.44,0,.9,.32,1.63,.96,2.18,.64,.56,1.46,.84,2.44,.84Z"/><path class="cls-4" d="M722.06,113.28h-18v-8.42h2.7v-15.36h-2.7v-8.36h14.91v23.72h3.08v8.42Zm-16.2-41.52c0-.73,.15-1.48,.45-2.25,.3-.77,.74-1.48,1.32-2.12s1.31-1.17,2.18-1.58c.88-.41,1.87-.61,2.99-.61s2.11,.2,2.99,.61c.88,.41,1.62,.93,2.22,1.58,.6,.64,1.06,1.35,1.38,2.12,.32,.77,.48,1.52,.48,2.25,0,1.8-.6,3.33-1.8,4.59-1.2,1.26-2.96,1.9-5.27,1.9-1.03,0-1.96-.19-2.8-.58-.84-.38-1.56-.89-2.19-1.51s-1.1-1.32-1.45-2.09-.51-1.54-.51-2.31Z"/><path class="cls-4" d="M745.07,113.28h-19.79v-8.42h2.7v-15.36h-2.7v-8.36h13.69l1.48,3.99c1.11-1.5,2.41-2.73,3.89-3.7,1.48-.96,3.25-1.45,5.3-1.45,2.48,0,4.49,.42,6.01,1.25,1.52,.84,2.7,1.93,3.54,3.28,.83,1.35,1.39,2.87,1.67,4.56,.28,1.69,.42,3.37,.42,5.04v10.73h3.02v8.42h-16.2v-17.55c0-.56-.01-1.18-.03-1.86-.02-.68-.14-1.33-.35-1.93-.21-.6-.57-1.11-1.06-1.54-.49-.43-1.21-.64-2.15-.64-.81,0-1.49,.18-2.02,.55-.54,.37-.95,.84-1.25,1.41-.3,.58-.5,1.22-.61,1.93-.11,.71-.16,1.4-.16,2.09v9.13h4.63v8.42Z"/><path class="cls-4" d="M766.21,81.15h3.47v-5.91l11.83-3.79v9.7h6.11v8.36h-6.11v11.44c0,.3-.01,.6-.03,.9s-.03,.62-.03,.96c0,.86,.12,1.62,.35,2.28,.24,.67,.83,1,1.77,1,.43,0,1.06-.12,1.9-.35,.83-.23,1.55-.48,2.15-.74v8.23c-.47,.21-1.07,.4-1.8,.55-.73,.15-1.48,.27-2.25,.35-.77,.08-1.49,.16-2.15,.22-.67,.06-1.19,.1-1.58,.1-2.4,0-4.27-.32-5.62-.96-1.35-.64-2.35-1.54-2.99-2.7-.64-1.16-1.05-2.57-1.22-4.24-.17-1.67-.28-3.54-.32-5.59v-11.44h-3.47v-8.36Z"/><path class="cls-4" d="M822.44,108.85c-2.4,2.06-4.93,3.5-7.58,4.34-2.66,.84-5.66,1.25-9,1.25-2.01,0-4.03-.33-6.04-1-2.01-.66-3.82-1.69-5.43-3.08s-2.92-3.19-3.95-5.4c-1.03-2.21-1.54-4.85-1.54-7.94,0-2.61,.45-4.96,1.35-7.04,.9-2.08,2.12-3.84,3.66-5.3,1.54-1.46,3.36-2.56,5.46-3.31,2.1-.75,4.37-1.12,6.81-1.12,2.66,0,5,.39,7.04,1.16,2.03,.77,3.74,1.84,5.11,3.21,1.37,1.37,2.4,2.99,3.08,4.85,.68,1.86,1.03,3.89,1.03,6.07,0,.86-.06,1.7-.19,2.54-.13,.83-.32,1.62-.58,2.35h-20.25c.09,.43,.23,.94,.42,1.54,.19,.6,.52,1.18,1,1.74,.47,.56,1.11,1.03,1.93,1.41s1.91,.58,3.28,.58c.56,0,1.17-.02,1.83-.06,.66-.04,1.38-.17,2.15-.38,.77-.21,1.58-.52,2.44-.93,.86-.41,1.71-.97,2.57-1.7l5.4,6.23Zm-15.88-19.92c-.99,0-1.79,.19-2.41,.58s-1.11,.85-1.48,1.38c-.37,.54-.62,1.1-.77,1.7-.15,.6-.25,1.09-.29,1.48h9.7c0-.6-.06-1.21-.19-1.83-.13-.62-.35-1.18-.67-1.67-.32-.49-.79-.89-1.41-1.19-.62-.3-1.45-.45-2.47-.45Z"/><path class="cls-4" d="M843.2,113.28h-18.19v-8.42h2.83v-15.36h-2.76v-8.36h12.08l1.93,4.11c.43-.77,.88-1.5,1.35-2.18,.47-.69,1.07-1.3,1.8-1.83,.73-.54,1.63-.95,2.7-1.25,1.07-.3,2.44-.45,4.11-.45v11.57c-2.91,0-5.15,.48-6.72,1.45s-2.35,2.86-2.35,5.69v6.62h3.21v8.42Z"/><path class="cls-4" d="M850.98,113.28v-11.57h8.61c0,.86,.27,1.56,.8,2.12,.54,.56,1.17,1,1.9,1.32,.73,.32,1.48,.55,2.25,.67,.77,.13,1.39,.19,1.86,.19,.64,0,1.27-.14,1.9-.42s.93-.87,.93-1.77c0-.6-.44-1.08-1.32-1.45-.88-.36-1.99-.72-3.34-1.06-1.35-.34-2.8-.75-4.34-1.22s-2.99-1.12-4.34-1.96c-1.35-.83-2.46-1.93-3.34-3.28-.88-1.35-1.32-3.07-1.32-5.17,0-1.63,.38-3.03,1.12-4.21,.75-1.18,1.69-2.14,2.83-2.89,1.13-.75,2.36-1.31,3.66-1.67,1.31-.36,2.54-.55,3.7-.55,2.19,0,4.16,.49,5.91,1.48,1.76,.99,2.98,2.16,3.66,3.54l.51-4.24h7.9v11.57h-8.35c0-.68-.19-1.32-.58-1.9s-.89-1.09-1.51-1.54c-.62-.45-1.32-.8-2.09-1.06-.77-.26-1.56-.39-2.38-.39-.69,0-1.28,.18-1.77,.55-.49,.36-.74,.95-.74,1.77,0,.73,.45,1.31,1.35,1.74,.9,.43,2.02,.85,3.37,1.25,1.35,.41,2.82,.86,4.4,1.35,1.58,.49,3.05,1.15,4.4,1.96,1.35,.81,2.47,1.85,3.37,3.12,.9,1.26,1.35,2.88,1.35,4.85,0,1.5-.33,2.85-1,4.05-.67,1.2-1.54,2.22-2.63,3.05-1.09,.84-2.37,1.47-3.82,1.9-1.46,.43-2.96,.64-4.5,.64-2.31,0-4.34-.47-6.07-1.41-1.74-.94-2.99-2.03-3.76-3.28l-.58,3.92h-8.03Z"/></g><g><path class="cls-2" d="M307.84,158.66c-1.11,0-2.08-.26-2.92-.79-.84-.53-1.51-1.21-2-2.05v8.2h-2.9v-19.4h2.56v2.48c.53-.83,1.21-1.48,2.04-1.98,.83-.49,1.78-.74,2.83-.74,.95,0,1.82,.19,2.61,.58s1.48,.91,2.05,1.56,1.03,1.41,1.36,2.27c.32,.86,.49,1.77,.49,2.71,0,1-.15,1.94-.45,2.81s-.72,1.63-1.26,2.27c-.54,.64-1.19,1.15-1.94,1.53-.75,.38-1.57,.57-2.46,.57Zm-.95-2.48c.61,0,1.17-.13,1.67-.39s.93-.61,1.29-1.05c.36-.44,.64-.94,.83-1.5s.29-1.14,.29-1.74c0-.63-.11-1.23-.33-1.79s-.52-1.05-.9-1.48c-.38-.42-.83-.76-1.36-1-.53-.25-1.1-.37-1.71-.37-.37,0-.76,.07-1.16,.21s-.78,.33-1.13,.58c-.35,.25-.66,.53-.92,.86-.26,.32-.45,.68-.55,1.07v3.61c.18,.42,.4,.82,.69,1.19,.28,.37,.59,.68,.93,.95,.34,.26,.72,.47,1.12,.63s.82,.24,1.24,.24Z"/><path class="cls-2" d="M327.92,158.66c-.67,0-1.29-.11-1.86-.33-.57-.22-1.06-.52-1.48-.91-.41-.39-.74-.84-.98-1.37-.24-.53-.36-1.1-.36-1.71,0-.65,.14-1.24,.42-1.77,.28-.53,.68-.98,1.2-1.37s1.13-.68,1.85-.9c.71-.21,1.5-.32,2.36-.32,.65,0,1.29,.06,1.92,.17s1.2,.27,1.71,.46v-.95c0-1.02-.29-1.81-.87-2.39-.58-.57-1.41-.86-2.5-.86-.74,0-1.46,.14-2.17,.41-.71,.27-1.44,.66-2.2,1.17l-.9-1.85c1.77-1.19,3.62-1.79,5.53-1.79s3.37,.48,4.43,1.45c1.05,.97,1.58,2.35,1.58,4.16v4.98c0,.62,.25,.93,.76,.95v2.48c-.28,.05-.52,.09-.72,.11-.2,.02-.4,.03-.59,.03-.56,0-1-.14-1.3-.42-.31-.28-.5-.64-.57-1.08l-.08-.87c-.61,.81-1.37,1.43-2.28,1.86-.9,.43-1.88,.65-2.91,.65Zm.79-2.13c.7,0,1.37-.13,1.99-.38,.62-.25,1.11-.61,1.46-1.07,.37-.32,.55-.65,.55-1v-1.82c-.49-.19-1.02-.34-1.57-.45-.55-.11-1.09-.16-1.62-.16-1.04,0-1.88,.22-2.54,.67s-.99,1.04-.99,1.78c0,.69,.25,1.26,.76,1.73,.51,.47,1.16,.7,1.95,.7Z"/><path class="cls-2" d="M346.82,142.35v-3.19h2.9v3.19h-2.9Zm0,16.05v-13.78h2.9v13.78h-2.9Z"/><path class="cls-2" d="M373.25,158.4h-2.9v-7.72c0-1.3-.21-2.24-.62-2.83-.41-.59-1.02-.88-1.83-.88-.42,0-.84,.08-1.27,.24s-.82,.38-1.19,.67-.7,.63-.99,1.03c-.29,.4-.51,.83-.67,1.3v8.2h-2.9v-13.78h2.64v2.77c.53-.93,1.29-1.66,2.29-2.2,1-.54,2.11-.8,3.32-.8,.83,0,1.5,.15,2.03,.45,.53,.3,.94,.71,1.25,1.23s.52,1.12,.65,1.79c.12,.68,.18,1.39,.18,2.15v8.41Z"/><path class="cls-2" d="M391.85,157.69c-.37,.18-.88,.37-1.53,.59-.65,.22-1.34,.33-2.08,.33-.46,0-.89-.06-1.29-.18-.4-.12-.76-.31-1.07-.55-.31-.25-.55-.57-.72-.96-.18-.4-.26-.87-.26-1.44v-8.62h-1.82v-2.24h1.82v-4.53h2.9v4.53h3v2.24h-3v7.7c.03,.49,.19,.85,.46,1.07s.61,.33,1.02,.33,.79-.07,1.16-.21,.64-.25,.82-.34l.61,2.29Z"/><path class="cls-2" d="M401.55,142.35v-3.19h2.9v3.19h-2.9Zm0,16.05v-13.78h2.9v13.78h-2.9Z"/><path class="cls-2" d="M427.98,158.4h-2.9v-7.72c0-1.3-.21-2.24-.62-2.83-.41-.59-1.02-.88-1.83-.88-.42,0-.84,.08-1.27,.24s-.82,.38-1.19,.67-.7,.63-.99,1.03c-.29,.4-.51,.83-.67,1.3v8.2h-2.9v-13.78h2.64v2.77c.53-.93,1.29-1.66,2.29-2.2,1-.54,2.11-.8,3.32-.8,.83,0,1.5,.15,2.03,.45,.53,.3,.94,.71,1.25,1.23s.52,1.12,.65,1.79c.12,.68,.18,1.39,.18,2.15v8.41Z"/><path class="cls-2" d="M444.51,158.53c-.93,0-1.78-.19-2.56-.57-.77-.38-1.44-.89-1.99-1.54-.55-.65-.98-1.4-1.29-2.24s-.46-1.73-.46-2.66c0-.98,.16-1.91,.47-2.78,.32-.87,.76-1.63,1.32-2.27s1.23-1.15,2.02-1.53c.78-.38,1.65-.57,2.6-.57,1.11,0,2.08,.26,2.91,.79,.83,.53,1.52,1.21,2.07,2.06v-2.61h2.56v13.39c0,1-.18,1.89-.55,2.66-.37,.77-.88,1.43-1.54,1.96s-1.44,.94-2.33,1.23c-.9,.28-1.86,.42-2.9,.42-1.53,0-2.8-.26-3.81-.78-1.01-.52-1.86-1.24-2.54-2.17l1.63-1.53c.53,.74,1.21,1.3,2.04,1.69,.83,.39,1.73,.58,2.68,.58,.6,0,1.16-.08,1.7-.24,.54-.16,1-.4,1.41-.74,.4-.33,.72-.76,.96-1.27s.36-1.12,.36-1.82v-2.11c-.49,.84-1.17,1.49-2.03,1.95-.86,.46-1.77,.68-2.71,.68Zm.95-2.35c.44,0,.86-.07,1.26-.22s.78-.35,1.12-.61c.34-.25,.64-.54,.88-.87,.25-.32,.42-.67,.53-1.04v-3.61c-.18-.44-.4-.84-.69-1.2-.28-.36-.6-.67-.96-.94-.36-.26-.74-.47-1.15-.62-.4-.15-.81-.22-1.21-.22-.63,0-1.2,.14-1.7,.41s-.93,.63-1.28,1.08c-.35,.45-.62,.95-.82,1.52s-.29,1.14-.29,1.74c0,.63,.11,1.22,.33,1.78,.22,.55,.52,1.04,.91,1.45,.39,.41,.84,.74,1.36,.99,.52,.25,1.08,.37,1.7,.37Z"/><path class="cls-2" d="M463.19,158.4v-3.37h2.4v3.37h-2.4Z"/><path class="cls-2" d="M489.94,151.5c0-.97,.17-1.88,.5-2.74,.33-.86,.81-1.62,1.44-2.27,.62-.65,1.37-1.16,2.25-1.54,.88-.38,1.86-.57,2.95-.57,1.42,0,2.65,.31,3.68,.94s1.8,1.45,2.31,2.49l-2.82,.9c-.33-.58-.78-1.03-1.34-1.36s-1.19-.49-1.87-.49c-.58,0-1.12,.11-1.62,.34-.5,.23-.94,.55-1.3,.96-.37,.41-.66,.9-.87,1.46s-.32,1.19-.32,1.87,.11,1.29,.33,1.86c.22,.57,.52,1.07,.9,1.49,.38,.42,.82,.75,1.32,.99s1.03,.36,1.59,.36c.35,0,.7-.05,1.05-.14s.67-.23,.96-.41,.54-.38,.76-.61c.22-.23,.38-.47,.49-.74l2.85,.84c-.46,1.04-1.22,1.88-2.29,2.54-1.07,.66-2.34,.99-3.8,.99-1.07,0-2.05-.19-2.93-.58-.88-.39-1.63-.91-2.25-1.57-.62-.66-1.11-1.42-1.45-2.28-.34-.86-.51-1.77-.51-2.74Z"/><path class="cls-2" d="M516.93,158.66c-.67,0-1.29-.11-1.86-.33-.57-.22-1.06-.52-1.48-.91-.41-.39-.74-.84-.98-1.37-.24-.53-.36-1.1-.36-1.71,0-.65,.14-1.24,.42-1.77,.28-.53,.68-.98,1.2-1.37s1.13-.68,1.85-.9c.71-.21,1.5-.32,2.36-.32,.65,0,1.29,.06,1.92,.17s1.2,.27,1.71,.46v-.95c0-1.02-.29-1.81-.87-2.39-.58-.57-1.41-.86-2.5-.86-.74,0-1.46,.14-2.17,.41-.71,.27-1.44,.66-2.2,1.17l-.9-1.85c1.77-1.19,3.62-1.79,5.53-1.79s3.37,.48,4.43,1.45c1.05,.97,1.58,2.35,1.58,4.16v4.98c0,.62,.25,.93,.76,.95v2.48c-.28,.05-.52,.09-.72,.11-.2,.02-.4,.03-.59,.03-.56,0-1-.14-1.3-.42-.31-.28-.5-.64-.57-1.08l-.08-.87c-.61,.81-1.37,1.43-2.28,1.86-.9,.43-1.88,.65-2.91,.65Zm.79-2.13c.7,0,1.37-.13,1.99-.38,.62-.25,1.11-.61,1.46-1.07,.37-.32,.55-.65,.55-1v-1.82c-.49-.19-1.02-.34-1.57-.45-.55-.11-1.09-.16-1.62-.16-1.04,0-1.88,.22-2.54,.67s-.99,1.04-.99,1.78c0,.69,.25,1.26,.76,1.73,.51,.47,1.16,.7,1.95,.7Z"/><path class="cls-2" d="M543.57,147.12c-1.12,.04-2.12,.29-2.99,.78s-1.49,1.17-1.86,2.07v8.43h-2.9v-13.78h2.69v3.08c.47-.95,1.09-1.71,1.86-2.28,.76-.57,1.59-.88,2.46-.93h.43c.11,0,.22,0,.3,.03v2.61Z"/><path class="cls-2" d="M561.2,158.66c-1.11,0-2.08-.26-2.92-.79-.84-.53-1.51-1.21-2-2.05v8.2h-2.9v-19.4h2.56v2.48c.53-.83,1.21-1.48,2.04-1.98,.83-.49,1.78-.74,2.83-.74,.95,0,1.82,.19,2.61,.58s1.48,.91,2.05,1.56,1.03,1.41,1.36,2.27c.32,.86,.49,1.77,.49,2.71,0,1-.15,1.94-.45,2.81s-.72,1.63-1.26,2.27c-.54,.64-1.19,1.15-1.94,1.53-.75,.38-1.57,.57-2.46,.57Zm-.95-2.48c.61,0,1.17-.13,1.67-.39s.93-.61,1.29-1.05c.36-.44,.64-.94,.83-1.5s.29-1.14,.29-1.74c0-.63-.11-1.23-.33-1.79s-.52-1.05-.9-1.48c-.38-.42-.83-.76-1.36-1-.53-.25-1.1-.37-1.71-.37-.37,0-.76,.07-1.16,.21s-.78,.33-1.13,.58c-.35,.25-.66,.53-.92,.86-.26,.32-.45,.68-.55,1.07v3.61c.18,.42,.4,.82,.69,1.19,.28,.37,.59,.68,.93,.95,.34,.26,.72,.47,1.12,.63s.82,.24,1.24,.24Z"/><path class="cls-2" d="M583.86,158.66c-1.07,0-2.05-.19-2.93-.57-.88-.38-1.63-.89-2.25-1.54-.62-.65-1.11-1.41-1.45-2.27-.34-.86-.51-1.77-.51-2.74s.17-1.88,.51-2.75,.83-1.63,1.45-2.29c.62-.66,1.37-1.18,2.25-1.55s1.86-.57,2.95-.57,2.04,.19,2.91,.58,1.61,.9,2.23,1.54c.61,.64,1.08,1.39,1.41,2.24s.49,1.74,.49,2.67c0,.21,0,.41-.03,.59-.02,.18-.03,.34-.05,.46h-11.04c.05,.61,.2,1.17,.43,1.66,.24,.49,.54,.92,.92,1.28,.38,.36,.81,.64,1.29,.83s.99,.29,1.52,.29c.39,0,.77-.05,1.15-.15,.38-.1,.73-.24,1.04-.42,.32-.18,.6-.41,.84-.67,.25-.26,.44-.55,.58-.87l2.48,.71c-.47,1.04-1.26,1.88-2.36,2.54-1.1,.66-2.38,.99-3.83,.99Zm4.19-8.2c-.05-.58-.2-1.12-.43-1.61-.24-.49-.54-.91-.91-1.25s-.8-.61-1.29-.8c-.49-.19-1.01-.29-1.56-.29s-1.06,.1-1.54,.29c-.48,.19-.91,.46-1.28,.8s-.67,.76-.9,1.25c-.23,.49-.37,1.03-.42,1.61h8.33Z"/><path class="cls-2" d="M613.35,158.4h-2.9v-7.72c0-1.3-.21-2.24-.62-2.83-.41-.59-1.02-.88-1.83-.88-.42,0-.84,.08-1.27,.24s-.82,.38-1.19,.67-.7,.63-.99,1.03c-.29,.4-.51,.83-.67,1.3v8.2h-2.9v-13.78h2.64v2.77c.53-.93,1.29-1.66,2.29-2.2,1-.54,2.11-.8,3.32-.8,.83,0,1.5,.15,2.03,.45,.53,.3,.94,.71,1.25,1.23s.52,1.12,.65,1.79c.12,.68,.18,1.39,.18,2.15v8.41Z"/><path class="cls-2" d="M631.96,157.69c-.37,.18-.88,.37-1.53,.59-.65,.22-1.34,.33-2.08,.33-.46,0-.89-.06-1.29-.18-.4-.12-.76-.31-1.07-.55-.31-.25-.55-.57-.72-.96-.18-.4-.26-.87-.26-1.44v-8.62h-1.82v-2.24h1.82v-4.53h2.9v4.53h3v2.24h-3v7.7c.03,.49,.19,.85,.46,1.07s.61,.33,1.02,.33,.79-.07,1.16-.21,.64-.25,.82-.34l.61,2.29Z"/><path class="cls-2" d="M649.4,147.12c-1.12,.04-2.12,.29-2.99,.78s-1.49,1.17-1.86,2.07v8.43h-2.9v-13.78h2.69v3.08c.47-.95,1.09-1.71,1.86-2.28,.76-.57,1.59-.88,2.46-.93h.43c.11,0,.22,0,.3,.03v2.61Z"/><path class="cls-2" d="M659.68,161.64c.26,.05,.52,.1,.78,.13,.25,.03,.46,.05,.62,.05,.23,0,.43-.05,.59-.15,.17-.1,.34-.27,.51-.51,.18-.25,.36-.59,.54-1.04,.18-.45,.4-1.02,.65-1.73l-5.67-13.78h2.98l4.27,11.23,3.8-11.23h2.74l-6.25,16.97c-.28,.79-.77,1.45-1.46,1.99-.69,.54-1.59,.8-2.68,.8-.21,0-.43-.01-.66-.04-.23-.03-.48-.08-.76-.17v-2.53Z"/><path class="cls-2" d="M679.92,158.4v-3.37h2.4v3.37h-2.4Z"/><path class="cls-2" d="M712.57,158.66c-1.11,0-2.21-.18-3.31-.54s-2.04-.87-2.83-1.54l1.16-1.85c.83,.6,1.64,1.05,2.45,1.36,.81,.31,1.63,.46,2.48,.46s1.54-.17,2.04-.5c.5-.33,.75-.81,.75-1.42,0-.58-.28-1-.84-1.27-.56-.26-1.44-.55-2.64-.87-.86-.23-1.6-.45-2.21-.66-.62-.21-1.12-.46-1.5-.74-.39-.28-.67-.61-.84-.98s-.26-.82-.26-1.34c0-.7,.14-1.33,.41-1.87,.27-.54,.65-1,1.13-1.38s1.05-.66,1.7-.86,1.35-.29,2.11-.29c1.04,0,2,.16,2.9,.47,.9,.32,1.7,.77,2.4,1.37l-1.24,1.74c-1.28-1.02-2.64-1.53-4.08-1.53-.74,0-1.36,.15-1.86,.46-.5,.31-.75,.8-.75,1.46,0,.28,.05,.52,.16,.71,.11,.19,.28,.36,.51,.5,.24,.14,.54,.27,.92,.38,.38,.11,.85,.24,1.41,.38,.93,.23,1.73,.46,2.41,.69s1.23,.5,1.67,.8c.44,.31,.76,.67,.97,1.08,.21,.41,.32,.91,.32,1.49,0,1.32-.5,2.36-1.49,3.12-.99,.76-2.34,1.15-4.05,1.15Z"/><path class="cls-2" d="M728.33,142.35v-3.19h2.9v3.19h-2.9Zm0,16.05v-13.78h2.9v13.78h-2.9Z"/><path class="cls-2" d="M748.01,158.66c-.93,0-1.79-.19-2.58-.57-.79-.38-1.48-.89-2.05-1.54-.58-.65-1.03-1.41-1.36-2.28-.33-.87-.49-1.8-.49-2.81s.15-1.87,.46-2.73,.74-1.6,1.29-2.25c.55-.65,1.2-1.16,1.95-1.54,.75-.38,1.57-.57,2.46-.57,1.11,0,2.08,.27,2.93,.8,.84,.54,1.5,1.22,1.98,2.04v-8.06h2.9v15.81c0,.33,.06,.57,.17,.71,.11,.14,.32,.22,.62,.24v2.48c-.3,.05-.54,.09-.73,.11-.18,.02-.34,.03-.46,.03-.58,0-1.05-.15-1.42-.45-.37-.3-.57-.68-.61-1.16l-.05-1.03c-.51,.86-1.2,1.54-2.08,2.03-.88,.49-1.85,.74-2.92,.74Zm.71-2.48c.42,0,.84-.07,1.27-.21,.42-.14,.81-.33,1.16-.58,.35-.25,.65-.54,.91-.87,.25-.33,.43-.69,.54-1.08v-3.61c-.16-.44-.38-.84-.67-1.21s-.62-.69-.99-.95c-.37-.26-.76-.47-1.17-.61-.41-.14-.83-.21-1.25-.21-.58,0-1.11,.13-1.59,.4-.48,.26-.9,.61-1.25,1.05s-.63,.94-.83,1.5c-.2,.56-.3,1.14-.3,1.74,0,.63,.11,1.23,.33,1.79,.22,.56,.52,1.05,.91,1.48,.39,.42,.83,.76,1.33,1,.5,.25,1.04,.37,1.62,.37Z"/><path class="cls-2" d="M766.88,142.35v-3.19h2.9v3.19h-2.9Zm0,16.05v-13.78h2.9v13.78h-2.9Z"/><path class="cls-2" d="M793.31,158.4h-2.9v-7.72c0-1.3-.21-2.24-.62-2.83-.41-.59-1.02-.88-1.83-.88-.42,0-.84,.08-1.27,.24s-.82,.38-1.19,.67-.7,.63-.99,1.03c-.29,.4-.51,.83-.67,1.3v8.2h-2.9v-13.78h2.64v2.77c.53-.93,1.29-1.66,2.29-2.2,1-.54,2.11-.8,3.32-.8,.83,0,1.5,.15,2.03,.45,.53,.3,.94,.71,1.25,1.23s.52,1.12,.65,1.79c.12,.68,.18,1.39,.18,2.15v8.41Z"/><path class="cls-2" d="M809.84,158.53c-.93,0-1.78-.19-2.56-.57-.77-.38-1.44-.89-1.99-1.54-.55-.65-.98-1.4-1.29-2.24s-.46-1.73-.46-2.66c0-.98,.16-1.91,.47-2.78,.32-.87,.76-1.63,1.32-2.27s1.23-1.15,2.02-1.53c.78-.38,1.65-.57,2.6-.57,1.11,0,2.08,.26,2.91,.79,.83,.53,1.52,1.21,2.07,2.06v-2.61h2.56v13.39c0,1-.18,1.89-.55,2.66-.37,.77-.88,1.43-1.54,1.96s-1.44,.94-2.33,1.23c-.9,.28-1.86,.42-2.9,.42-1.53,0-2.8-.26-3.81-.78-1.01-.52-1.86-1.24-2.54-2.17l1.63-1.53c.53,.74,1.21,1.3,2.04,1.69,.83,.39,1.73,.58,2.68,.58,.6,0,1.16-.08,1.7-.24,.54-.16,1-.4,1.41-.74,.4-.33,.72-.76,.96-1.27s.36-1.12,.36-1.82v-2.11c-.49,.84-1.17,1.49-2.03,1.95-.86,.46-1.77,.68-2.71,.68Zm.95-2.35c.44,0,.86-.07,1.26-.22s.78-.35,1.12-.61c.34-.25,.64-.54,.88-.87,.25-.32,.42-.67,.53-1.04v-3.61c-.18-.44-.4-.84-.69-1.2-.28-.36-.6-.67-.96-.94-.36-.26-.74-.47-1.15-.62-.4-.15-.81-.22-1.21-.22-.63,0-1.2,.14-1.7,.41s-.93,.63-1.28,1.08c-.35,.45-.62,.95-.82,1.52s-.29,1.14-.29,1.74c0,.63,.11,1.22,.33,1.78,.22,.55,.52,1.04,.91,1.45,.39,.41,.84,.74,1.36,.99,.52,.25,1.08,.37,1.7,.37Z"/><path class="cls-2" d="M828.52,158.4v-3.37h2.4v3.37h-2.4Z"/></g></g></svg>