<?xml version="1.0" encoding="utf-8"?>
<!-- Generator: Adobe Illustrator 24.0.1, SVG Export Plug-In . SVG Version: 6.00 Build 0)  -->
<svg version="1.1" id="Layer_2" xmlns="http://www.w3.org/2000/svg" xmlns:xlink="http://www.w3.org/1999/xlink" x="0px" y="0px"
	 viewBox="0 0 1718.76 358.71" style="enable-background:new 0 0 1718.76 358.71;" xml:space="preserve">
<style type="text/css">
	.st0{fill:#414042;}
	.st1{fill:#101010;}
	.st2{fill:#FFFFFF;}
</style>
<path class="st0" d="M352.23,177.01c0-94.53-76.64-171.17-171.17-171.17S9.89,82.47,9.89,177.01c0,0.73,0.02,1.46,0.03,2.19
	L90.8,98.32l38.68,45.13l6.25,33.56l71.6,66.48l41.26,5.11l30.7,17.77l-62.17,77.99C294.33,327.8,352.23,259.17,352.23,177.01z"/>
<path class="st1" d="M248.59,248.6l-41.26-5.11l-71.6-66.48l-6.25-33.56L90.8,98.32L9.92,179.2
	c1.18,93.52,77.34,168.98,171.14,168.98c12.37,0,24.43-1.32,36.06-3.82l62.17-77.99L248.59,248.6z"/>
<polygon class="st1" points="152.39,46.75 97.12,102.02 168.84,173.75 207.12,135.47 210.74,121.32 "/>
<path class="st1" d="M229.84,221.3l-16.1,16.1l16.1,11.77l-19.1,11.93c0,0-64.21-69.89-61.94-69.89s70.46-9.66,70.46-9.66
	L229.84,221.3z"/>
<g>
	<path class="st2" d="M229.84,221.3c40.95-49.38,2.06-84.27,2.06-84.27l-22.9-6.28c33.35-20.88,17.7-49.14,17.7-49.14l-74.31-34.85
		c9.34,26.54,0.57,44.26-25.25,61.54L90.8,98.32c34.42,36.67,30.37,82.93,0,137.65C121.85,207.76,214.32,201.55,229.84,221.3z
		 M207.72,130.39l-77.67-21.31C156.25,104.01,201.34,117.16,207.72,130.39z"/>
	<path class="st2" d="M252.82,275.91c-17.57-6.93-66.97-49.06-61.48-52.19c0.01,0,0.01-0.01,0.02-0.01c-0.04-0.2-0.06-0.4-0.06-0.58
		c-28.11,20.73-99.96,22.91-118.18,17.18c3.45,3.45,6.47,6.47,9.14,9.14c0.51,0.08,1.02,0.15,1.54,0.22
		c1.46,0.16,2.95,0.37,4.47,0.56c1.51,0.22,3.06,0.31,4.63,0.48c1.56,0.15,3.14,0.31,4.74,0.42c1.6,0.12,3.21,0.24,4.82,0.36
		c1.62,0.06,3.25,0.12,4.87,0.18c1.62,0.1,3.25,0.14,4.87,0.15c1.62,0.02,3.24,0.04,4.84,0.07c3.2-0.13,6.37-0.01,9.42-0.19
		c3.05-0.2,6.02-0.19,8.81-0.45c1.4-0.1,2.76-0.2,4.08-0.3c0.66-0.04,1.31-0.08,1.95-0.12c0.64-0.06,1.26-0.13,1.87-0.19
		c2.44-0.26,4.69-0.46,6.69-0.63c1.99-0.24,3.72-0.44,5.15-0.62c2.87-0.32,4.52-0.47,4.52-0.47s-1.57,0.49-4.36,1.29
		c-1.39,0.38-3.08,0.89-5.04,1.37c-1.97,0.44-4.19,0.94-6.62,1.43c-2.43,0.56-5.1,0.89-7.92,1.33c-2.81,0.48-5.81,0.72-8.91,1.02
		c-1.55,0.17-3.13,0.24-4.73,0.33c-1.6,0.09-3.22,0.17-4.86,0.23c-1.64,0-3.29,0-4.94,0.01c-1.66,0.01-3.32,0.01-4.98-0.08
		c-1.66-0.09-3.32-0.18-4.98-0.26c-1.65-0.15-3.29-0.29-4.92-0.44c-1.63-0.12-3.24-0.34-4.83-0.58c-1.59-0.24-3.16-0.41-4.7-0.7
		c-0.44-0.08-0.88-0.16-1.32-0.23c13.71,13.71,16.24,16.24,23.25,23.25c1.48,1.48,3.28,2.86,5.34,4.13c1.15,0.2,2.32,0.42,3.54,0.58
		c1.39,0.2,2.81,0.44,4.27,0.62c1.46,0.16,2.95,0.37,4.47,0.56c1.51,0.22,3.06,0.31,4.63,0.48c1.56,0.15,3.14,0.31,4.74,0.42
		c1.6,0.12,3.21,0.24,4.82,0.36c1.62,0.06,3.25,0.12,4.87,0.18c1.62,0.1,3.25,0.14,4.87,0.15c1.62,0.02,3.24,0.04,4.84,0.07
		c3.2-0.13,6.37-0.01,9.42-0.19c3.05-0.2,6.02-0.19,8.81-0.45c1.4-0.1,2.76-0.2,4.08-0.3c0.66-0.04,1.31-0.08,1.95-0.12
		c0.64-0.06,1.26-0.13,1.87-0.19c2.44-0.26,4.69-0.46,6.69-0.63c1.99-0.24,3.72-0.44,5.15-0.62c2.87-0.32,4.52-0.47,4.52-0.47
		s-1.57,0.49-4.36,1.29c-1.39,0.38-3.08,0.89-5.04,1.37c-1.97,0.44-4.19,0.94-6.62,1.43c-2.43,0.56-5.1,0.89-7.92,1.33
		c-2.81,0.48-5.81,0.72-8.91,1.02c-1.55,0.17-3.13,0.24-4.73,0.33c-1.6,0.09-3.22,0.17-4.86,0.23c-1.64,0-3.29,0-4.94,0.01
		c-1.66,0.01-3.32,0.01-4.98-0.08c-1.66-0.09-3.32-0.18-4.98-0.26c-1.65-0.15-3.29-0.29-4.92-0.44c-1.63-0.12-3.24-0.34-4.83-0.58
		c-1.45-0.22-2.89-0.39-4.3-0.64c36.22,11.97,106.77,7.91,139.1-8.09c-0.32-0.09-0.66-0.19-0.99-0.29
		C261.71,278.3,257.55,277.78,252.82,275.91z"/>
	<path class="st2" d="M291.78,162.73c-4.37-5.19-13.02,7.84-14.58,12.01c-1.56,4.17-19.26,43.73-31.24,48.94
		c-11.97,5.21-37.49-6.63-42.17-8c-4.69-1.37-3.64,2.59-8.85,5.56c-5.21,2.96,41.65,42.92,58.31,49.49s26.03-4.36,26.03-4.36
		s-5.21-13.02-6.77-15.62c-1.56-2.6-10.41-8.33-10.93-14.58c-0.52-6.25,31.76-48.6,36.44-53.46S294.38,165.82,291.78,162.73z"/>
</g>
<g>
	<path class="st1" d="M420.42,179.84v-16.95h7.56v-57.38h-7.56V88.69h48.64c10.87,0,18.91,1.94,24.12,5.8
		c5.22,3.87,7.82,9.37,7.82,16.5c0,2.78-0.22,5.2-0.65,7.24c-0.44,2.04-1.13,3.87-2.09,5.48c-0.96,1.61-2.26,3.02-3.91,4.24
		c-1.65,1.22-3.7,2.3-6.13,3.26c2.35,0.7,4.57,1.63,6.65,2.8c2.09,1.17,3.91,2.67,5.48,4.5c1.56,1.82,2.8,3.98,3.72,6.45
		c0.91,2.48,1.37,5.28,1.37,8.41c0,9.22-2.76,15.93-8.28,20.15c-5.52,4.22-14.58,6.32-27.19,6.32H420.42z M454.98,105.91v19.56h7.96
		c3.48,0,5.82-0.89,7.04-2.67c1.22-1.78,1.82-4.24,1.82-7.37c0-3.04-0.8-5.39-2.41-7.04c-1.61-1.65-3.67-2.48-6.19-2.48H454.98z
		 M465.41,162.89c2.78,0,5.24-0.98,7.37-2.93c2.13-1.96,3.19-4.72,3.19-8.28c0-3.3-0.91-6.04-2.74-8.21
		c-1.82-2.17-4.56-3.26-8.21-3.26h-10.04v22.69H465.41z"/>
	<path class="st1" d="M548.09,179.84h-38.08v-17.08h5.61v-63.9h-5.48V82.04h30.25v80.72h7.69V179.84z"/>
	<path class="st1" d="M554.74,120.12c1.3-0.78,2.95-1.69,4.96-2.74c2-1.04,4.24-2.06,6.72-3.06c2.48-1,5.13-1.83,7.96-2.48
		c2.82-0.65,5.76-0.98,8.8-0.98c3.91,0,7.96,0.41,12.13,1.24c4.17,0.83,7.97,2.26,11.41,4.3c3.43,2.04,6.26,4.8,8.48,8.28
		c2.22,3.48,3.32,7.82,3.32,13.04v25.43h7.82v16.69h-27.91l-3.13-5.87c-1.22,1.65-2.59,3.02-4.11,4.11
		c-1.52,1.09-3.09,1.93-4.7,2.54c-1.61,0.61-3.19,1.04-4.76,1.3s-2.91,0.39-4.04,0.39c-3.13,0-6.22-0.44-9.26-1.3
		c-3.04-0.87-5.78-2.17-8.22-3.91c-2.44-1.74-4.41-3.98-5.93-6.72c-1.52-2.74-2.28-6.02-2.28-9.85c0-3.65,0.72-6.95,2.15-9.91
		c1.43-2.95,3.39-5.48,5.87-7.56c2.48-2.09,5.37-3.69,8.67-4.82c3.3-1.13,6.78-1.69,10.43-1.69c1.91,0,3.63,0.19,5.15,0.59
		c1.52,0.39,2.82,0.85,3.91,1.37c1.09,0.52,1.96,1.04,2.61,1.57c0.65,0.52,1.06,0.87,1.24,1.04v-4.56c0-2.95-1.17-4.91-3.52-5.87
		c-2.35-0.96-5.3-1.43-8.87-1.43c-3.91,0-7.5,0.65-10.76,1.96c-3.26,1.3-6.15,2.65-8.67,4.04L554.74,120.12z M583.68,165.37
		c2,0,3.74-0.48,5.22-1.43c1.48-0.96,2.52-1.91,3.13-2.87v-4.96c-0.09-0.17-0.28-0.46-0.59-0.85c-0.31-0.39-0.76-0.8-1.37-1.24
		c-0.61-0.43-1.37-0.82-2.28-1.17c-0.91-0.35-2.06-0.52-3.46-0.52c-2.61,0-4.52,0.65-5.74,1.96c-1.22,1.3-1.83,2.96-1.83,4.96
		c0,1.82,0.65,3.31,1.96,4.43C580.03,164.8,581.69,165.37,583.68,165.37z"/>
	<path class="st1" d="M675.22,144.11c-0.09-1.57-0.28-3.15-0.59-4.76c-0.31-1.61-0.76-3.09-1.37-4.43
		c-0.61-1.35-1.43-2.43-2.48-3.26c-1.04-0.83-2.3-1.24-3.78-1.24c-1.91,0-3.59,0.48-5.02,1.43c-1.43,0.96-2.63,2.22-3.59,3.78
		c-0.96,1.57-1.67,3.35-2.15,5.35c-0.48,2-0.72,4.04-0.72,6.13c0,4.43,1.21,8.11,3.65,11.02c2.43,2.91,5.82,4.37,10.17,4.37
		c3.3,0,6.17-0.67,8.61-2.02c2.43-1.35,4.69-3.15,6.78-5.41l11.48,13.3c-1.57,1.65-3.44,3.28-5.61,4.89
		c-2.17,1.61-4.63,3.02-7.37,4.24c-2.74,1.22-5.72,2.22-8.93,3c-3.22,0.78-6.56,1.17-10.04,1.17c-4.78,0-9.35-0.72-13.69-2.15
		c-4.35-1.43-8.15-3.61-11.41-6.52c-3.26-2.91-5.87-6.54-7.82-10.89c-1.96-4.35-2.93-9.43-2.93-15.26c0-5.74,0.89-10.71,2.67-14.93
		c1.78-4.21,4.15-7.69,7.11-10.43c2.95-2.74,6.37-4.76,10.24-6.06c3.87-1.3,7.89-1.96,12.06-1.96c2.17,0,4.15,0.26,5.93,0.78
		c1.78,0.52,3.34,1.17,4.69,1.96c1.35,0.78,2.5,1.61,3.46,2.48c0.96,0.87,1.7,1.61,2.22,2.22l2.22-6.26h15.39v29.47H675.22z"/>
	<path class="st1" d="M702.48,179.84v-16.95h5.35V99.13h-5.35V82.04h30.12v58.94l15.13-9h-9.39v-17.21h36.51v17.21h-10.04
		l-8.87,5.61l17.6,25.17h6.52v17.08h-38.6v-17.08h5.48l-9.91-14.08l-4.57,3.13v10.95h4.82v17.08H702.48z"/>
	<path class="st1" d="M818.66,88.69h42.25c7.56,0,13.69,0.76,18.39,2.28c4.69,1.52,8.35,3.56,10.95,6.13
		c2.61,2.56,4.37,5.52,5.28,8.87c0.91,3.35,1.37,6.89,1.37,10.63c0,4.35-0.91,8.13-2.74,11.35c-1.82,3.22-4.3,5.89-7.43,8.02
		c-3.13,2.13-6.76,3.74-10.89,4.82c-4.13,1.09-8.54,1.63-13.24,1.63h-9.91v20.21h7.96v17.21h-41.99v-17.21h7.3v-56.86h-7.3V88.69z
		 M852.7,105.64v22.69h5.87c3.82,0,6.91-0.93,9.26-2.8c2.35-1.87,3.52-4.54,3.52-8.02c0-3.91-1.07-6.87-3.19-8.87
		c-2.13-2-5.11-3-8.93-3H852.7z"/>
	<path class="st1" d="M967.58,170.85c-4.87,4.17-10,7.11-15.39,8.8c-5.39,1.7-11.48,2.54-18.26,2.54c-4.09,0-8.17-0.68-12.26-2.02
		c-4.09-1.35-7.76-3.43-11.02-6.26s-5.93-6.48-8.02-10.96c-2.09-4.48-3.13-9.84-3.13-16.1c0-5.3,0.91-10.06,2.74-14.28
		c1.82-4.21,4.3-7.8,7.43-10.76c3.13-2.95,6.82-5.19,11.08-6.72c4.26-1.52,8.87-2.28,13.82-2.28c5.39,0,10.15,0.78,14.28,2.35
		c4.13,1.56,7.58,3.74,10.37,6.52c2.78,2.78,4.87,6.06,6.26,9.85c1.39,3.78,2.09,7.89,2.09,12.32c0,1.74-0.13,3.46-0.39,5.15
		c-0.26,1.69-0.65,3.28-1.17,4.76h-41.08c0.17,0.87,0.46,1.91,0.85,3.13c0.39,1.22,1.06,2.39,2.02,3.52
		c0.96,1.13,2.26,2.09,3.91,2.87c1.65,0.78,3.87,1.17,6.65,1.17c1.13,0,2.37-0.04,3.72-0.13c1.35-0.09,2.8-0.34,4.37-0.78
		c1.57-0.43,3.22-1.06,4.96-1.89c1.74-0.82,3.48-1.98,5.22-3.46L967.58,170.85z M935.37,130.42c-2,0-3.63,0.39-4.89,1.17
		c-1.26,0.78-2.26,1.72-3,2.8c-0.74,1.09-1.26,2.24-1.57,3.46c-0.31,1.22-0.5,2.22-0.59,3h19.69c0-1.22-0.13-2.46-0.39-3.72
		c-0.26-1.26-0.72-2.39-1.37-3.39c-0.65-1-1.61-1.8-2.87-2.41C939.13,130.73,937.46,130.42,935.37,130.42z"/>
	<path class="st1" d="M974.23,120.12c1.3-0.78,2.95-1.69,4.96-2.74c2-1.04,4.24-2.06,6.72-3.06c2.48-1,5.13-1.83,7.96-2.48
		c2.82-0.65,5.76-0.98,8.8-0.98c3.91,0,7.96,0.41,12.13,1.24s7.97,2.26,11.41,4.3c3.43,2.04,6.26,4.8,8.48,8.28
		c2.22,3.48,3.32,7.82,3.32,13.04v25.43h7.82v16.69h-27.91l-3.13-5.87c-1.22,1.65-2.59,3.02-4.11,4.11
		c-1.52,1.09-3.09,1.93-4.7,2.54c-1.61,0.61-3.19,1.04-4.76,1.3c-1.57,0.26-2.91,0.39-4.04,0.39c-3.13,0-6.22-0.44-9.26-1.3
		c-3.04-0.87-5.78-2.17-8.22-3.91c-2.44-1.74-4.41-3.98-5.93-6.72c-1.52-2.74-2.28-6.02-2.28-9.85c0-3.65,0.72-6.95,2.15-9.91
		c1.43-2.95,3.39-5.48,5.87-7.56c2.48-2.09,5.37-3.69,8.67-4.82c3.3-1.13,6.78-1.69,10.43-1.69c1.91,0,3.63,0.19,5.15,0.59
		c1.52,0.39,2.82,0.85,3.91,1.37c1.09,0.52,1.96,1.04,2.61,1.57c0.65,0.52,1.06,0.87,1.24,1.04v-4.56c0-2.95-1.17-4.91-3.52-5.87
		c-2.35-0.96-5.3-1.43-8.87-1.43c-3.91,0-7.5,0.65-10.76,1.96c-3.26,1.3-6.15,2.65-8.67,4.04L974.23,120.12z M1003.18,165.37
		c2,0,3.74-0.48,5.22-1.43c1.48-0.96,2.52-1.91,3.13-2.87v-4.96c-0.09-0.17-0.28-0.46-0.59-0.85c-0.31-0.39-0.76-0.8-1.37-1.24
		c-0.61-0.43-1.37-0.82-2.28-1.17c-0.91-0.35-2.06-0.52-3.46-0.52c-2.61,0-4.52,0.65-5.74,1.96c-1.22,1.3-1.83,2.96-1.83,4.96
		c0,1.82,0.65,3.31,1.96,4.43C999.53,164.8,1001.18,165.37,1003.18,165.37z"/>
	<path class="st1" d="M1087.94,179.84h-36.9v-17.08h5.74V131.6h-5.61v-16.95h24.52l3.91,8.35c0.87-1.57,1.78-3.04,2.74-4.43
		c0.96-1.39,2.17-2.63,3.65-3.72c1.48-1.09,3.3-1.93,5.48-2.54c2.17-0.61,4.96-0.91,8.35-0.91v23.47c-5.91,0-10.45,0.98-13.63,2.93
		c-3.17,1.96-4.76,5.8-4.76,11.54v13.43h6.52V179.84z"/>
	<path class="st1" d="M1143.1,179.84h-38.08v-17.08h5.61v-63.9h-5.48V82.04h30.25v80.72h7.69V179.84z"/>
	<path class="st1" d="M1180.91,88.69h42.25c7.56,0,13.69,0.76,18.39,2.28c4.69,1.52,8.35,3.56,10.95,6.13
		c2.61,2.56,4.37,5.52,5.28,8.87s1.37,6.89,1.37,10.63c0,4.35-0.91,8.13-2.74,11.35c-1.82,3.22-4.3,5.89-7.43,8.02
		c-3.13,2.13-6.76,3.74-10.89,4.82c-4.13,1.09-8.54,1.63-13.24,1.63h-9.91v20.21h7.96v17.21h-41.99v-17.21h7.3v-56.86h-7.3V88.69z
		 M1214.94,105.64v22.69h5.87c3.82,0,6.91-0.93,9.26-2.8c2.35-1.87,3.52-4.54,3.52-8.02c0-3.91-1.07-6.87-3.19-8.87
		c-2.13-2-5.11-3-8.93-3H1214.94z"/>
	<path class="st1" d="M1265.8,120.12c1.3-0.78,2.95-1.69,4.96-2.74c2-1.04,4.24-2.06,6.72-3.06c2.48-1,5.13-1.83,7.96-2.48
		c2.82-0.65,5.76-0.98,8.8-0.98c3.91,0,7.96,0.41,12.13,1.24s7.97,2.26,11.41,4.3c3.43,2.04,6.26,4.8,8.48,8.28
		c2.22,3.48,3.32,7.82,3.32,13.04v25.43h7.82v16.69h-27.91l-3.13-5.87c-1.22,1.65-2.59,3.02-4.11,4.11
		c-1.52,1.09-3.09,1.93-4.7,2.54c-1.61,0.61-3.19,1.04-4.76,1.3s-2.91,0.39-4.04,0.39c-3.13,0-6.22-0.44-9.26-1.3
		c-3.04-0.87-5.78-2.17-8.21-3.91c-2.44-1.74-4.41-3.98-5.93-6.72c-1.52-2.74-2.28-6.02-2.28-9.85c0-3.65,0.72-6.95,2.15-9.91
		c1.43-2.95,3.39-5.48,5.87-7.56c2.48-2.09,5.37-3.69,8.67-4.82c3.3-1.13,6.78-1.69,10.43-1.69c1.91,0,3.63,0.19,5.15,0.59
		c1.52,0.39,2.82,0.85,3.91,1.37c1.09,0.52,1.96,1.04,2.61,1.57c0.65,0.52,1.06,0.87,1.24,1.04v-4.56c0-2.95-1.17-4.91-3.52-5.87
		c-2.35-0.96-5.3-1.43-8.87-1.43c-3.91,0-7.5,0.65-10.76,1.96c-3.26,1.3-6.15,2.65-8.67,4.04L1265.8,120.12z M1294.75,165.37
		c2,0,3.74-0.48,5.22-1.43c1.48-0.96,2.52-1.91,3.13-2.87v-4.96c-0.09-0.17-0.28-0.46-0.59-0.85c-0.31-0.39-0.76-0.8-1.37-1.24
		c-0.61-0.43-1.37-0.82-2.28-1.17c-0.91-0.35-2.06-0.52-3.46-0.52c-2.61,0-4.52,0.65-5.74,1.96c-1.22,1.3-1.83,2.96-1.83,4.96
		c0,1.82,0.65,3.31,1.96,4.43C1291.1,164.8,1292.75,165.37,1294.75,165.37z"/>
	<path class="st1" d="M1379.12,179.84h-36.51v-17.08h5.48V131.6h-5.48v-16.95h30.25v48.12h6.26V179.84z M1346.26,95.6
		c0-1.48,0.3-3,0.91-4.57c0.61-1.56,1.5-3,2.67-4.3s2.65-2.37,4.43-3.2c1.78-0.82,3.8-1.24,6.07-1.24c2.26,0,4.28,0.41,6.06,1.24
		c1.78,0.83,3.28,1.89,4.5,3.2c1.22,1.3,2.15,2.74,2.8,4.3c0.65,1.57,0.98,3.09,0.98,4.57c0,3.65-1.22,6.76-3.65,9.32
		c-2.44,2.57-6,3.85-10.69,3.85c-2.09,0-3.98-0.39-5.67-1.17c-1.7-0.78-3.17-1.8-4.43-3.06c-1.26-1.26-2.24-2.67-2.93-4.24
		C1346.6,98.73,1346.26,97.17,1346.26,95.6z"/>
	<path class="st1" d="M1425.8,179.84h-40.16v-17.08h5.48V131.6h-5.48v-16.95h27.78l3,8.09c2.26-3.04,4.89-5.54,7.89-7.5
		c3-1.96,6.59-2.93,10.76-2.93c5.04,0,9.1,0.85,12.19,2.54c3.09,1.7,5.48,3.91,7.17,6.65c1.69,2.74,2.82,5.83,3.39,9.26
		c0.56,3.44,0.85,6.85,0.85,10.24v21.78h6.13v17.08h-32.86v-35.6c0-1.13-0.02-2.39-0.07-3.78c-0.04-1.39-0.28-2.69-0.72-3.91
		c-0.44-1.22-1.15-2.26-2.15-3.13c-1-0.87-2.46-1.3-4.37-1.3c-1.65,0-3.02,0.37-4.11,1.11c-1.09,0.74-1.94,1.7-2.54,2.87
		c-0.61,1.17-1.02,2.48-1.24,3.91c-0.22,1.43-0.32,2.85-0.32,4.24v18.52h9.39V179.84z"/>
	<path class="st1" d="M1468.7,114.64h7.04v-12l23.99-7.69v19.69h12.39v16.95h-12.39v23.21c0,0.61-0.02,1.22-0.07,1.83
		c-0.04,0.61-0.07,1.26-0.07,1.96c0,1.74,0.24,3.28,0.72,4.63c0.48,1.35,1.67,2.02,3.59,2.02c0.87,0,2.15-0.24,3.85-0.72
		c1.69-0.48,3.15-0.98,4.37-1.5v16.69c-0.96,0.43-2.17,0.8-3.65,1.11c-1.48,0.3-3,0.54-4.57,0.72c-1.56,0.17-3.02,0.32-4.37,0.46
		c-1.35,0.13-2.41,0.2-3.2,0.2c-4.87,0-8.67-0.65-11.41-1.96c-2.74-1.3-4.76-3.13-6.07-5.48c-1.3-2.35-2.13-5.22-2.48-8.61
		c-0.35-3.39-0.57-7.17-0.65-11.35V131.6h-7.04V114.64z"/>
	<path class="st1" d="M1582.8,170.85c-4.87,4.17-10,7.11-15.39,8.8c-5.39,1.7-11.48,2.54-18.26,2.54c-4.09,0-8.17-0.68-12.26-2.02
		c-4.09-1.35-7.76-3.43-11.02-6.26s-5.93-6.48-8.02-10.96c-2.09-4.48-3.13-9.84-3.13-16.1c0-5.3,0.91-10.06,2.74-14.28
		c1.82-4.21,4.3-7.8,7.43-10.76c3.13-2.95,6.82-5.19,11.08-6.72c4.26-1.52,8.87-2.28,13.82-2.28c5.39,0,10.15,0.78,14.28,2.35
		c4.13,1.56,7.58,3.74,10.37,6.52c2.78,2.78,4.87,6.06,6.26,9.85c1.39,3.78,2.09,7.89,2.09,12.32c0,1.74-0.13,3.46-0.39,5.15
		c-0.26,1.69-0.65,3.28-1.17,4.76h-41.08c0.17,0.87,0.46,1.91,0.85,3.13c0.39,1.22,1.06,2.39,2.02,3.52
		c0.95,1.13,2.26,2.09,3.91,2.87c1.65,0.78,3.87,1.17,6.65,1.17c1.13,0,2.37-0.04,3.72-0.13c1.35-0.09,2.8-0.34,4.37-0.78
		c1.57-0.43,3.22-1.06,4.96-1.89c1.74-0.82,3.48-1.98,5.22-3.46L1582.8,170.85z M1550.59,130.42c-2,0-3.63,0.39-4.89,1.17
		c-1.26,0.78-2.26,1.72-3,2.8c-0.74,1.09-1.26,2.24-1.57,3.46c-0.31,1.22-0.5,2.22-0.59,3h19.69c0-1.22-0.13-2.46-0.39-3.72
		c-0.26-1.26-0.72-2.39-1.37-3.39c-0.65-1-1.61-1.8-2.87-2.41C1554.35,130.73,1552.68,130.42,1550.59,130.42z"/>
	<path class="st1" d="M1624.92,179.84h-36.9v-17.08h5.74V131.6h-5.61v-16.95h24.52l3.91,8.35c0.87-1.57,1.78-3.04,2.74-4.43
		c0.95-1.39,2.17-2.63,3.65-3.72c1.48-1.09,3.3-1.93,5.48-2.54c2.17-0.61,4.96-0.91,8.35-0.91v23.47c-5.91,0-10.45,0.98-13.63,2.93
		c-3.17,1.96-4.76,5.8-4.76,11.54v13.43h6.52V179.84z"/>
	<path class="st1" d="M1640.69,179.84v-23.47h17.47c0,1.74,0.54,3.17,1.63,4.3c1.09,1.13,2.37,2.02,3.85,2.67
		c1.48,0.65,3,1.11,4.56,1.37c1.57,0.26,2.83,0.39,3.78,0.39c1.3,0,2.59-0.28,3.85-0.85c1.26-0.56,1.89-1.76,1.89-3.59
		c0-1.22-0.89-2.2-2.67-2.93c-1.78-0.74-4.04-1.45-6.78-2.15c-2.74-0.7-5.67-1.52-8.8-2.48s-6.06-2.28-8.8-3.98
		c-2.74-1.69-5-3.91-6.78-6.65c-1.78-2.74-2.67-6.24-2.67-10.5c0-3.3,0.76-6.15,2.28-8.54c1.52-2.39,3.43-4.35,5.74-5.87
		c2.3-1.52,4.78-2.65,7.43-3.39c2.65-0.74,5.15-1.11,7.5-1.11c4.43,0,8.43,1,12,3c3.56,2,6.04,4.39,7.43,7.17l1.04-8.61h16.04v23.47
		h-16.95c0-1.39-0.39-2.67-1.17-3.85c-0.78-1.17-1.81-2.22-3.07-3.13c-1.26-0.91-2.67-1.63-4.24-2.15
		c-1.57-0.52-3.17-0.78-4.82-0.78c-1.39,0-2.59,0.37-3.59,1.11c-1,0.74-1.5,1.94-1.5,3.59c0,1.48,0.91,2.65,2.74,3.52
		c1.82,0.87,4.11,1.72,6.85,2.54c2.74,0.83,5.71,1.74,8.93,2.74c3.21,1,6.19,2.33,8.93,3.98c2.74,1.65,5.02,3.76,6.85,6.32
		c1.82,2.57,2.74,5.85,2.74,9.85c0,3.04-0.67,5.78-2.02,8.22c-1.35,2.44-3.13,4.5-5.35,6.19c-2.22,1.7-4.81,2.98-7.76,3.85
		c-2.96,0.87-6,1.3-9.13,1.3c-4.69,0-8.8-0.96-12.32-2.87c-3.52-1.91-6.06-4.13-7.63-6.65l-1.17,7.95H1640.69z"/>
</g>
<g>
	<path class="st1" d="M562.39,269.8c-2.22,0-4.18-0.53-5.87-1.59c-1.69-1.06-3.03-2.43-4.02-4.12v16.44h-5.82v-38.91h5.13v4.97
		c1.06-1.66,2.42-2.98,4.1-3.96c1.67-0.99,3.57-1.48,5.68-1.48c1.9,0,3.65,0.39,5.23,1.16c1.59,0.77,2.96,1.81,4.12,3.12
		c1.16,1.3,2.07,2.82,2.72,4.55c0.65,1.73,0.98,3.54,0.98,5.44c0,2.01-0.3,3.89-0.9,5.63c-0.6,1.75-1.45,3.26-2.54,4.55
		c-1.09,1.29-2.39,2.31-3.89,3.07C565.84,269.42,564.19,269.8,562.39,269.8z M560.49,264.83c1.23,0,2.35-0.26,3.36-0.79
		c1-0.53,1.87-1.23,2.59-2.11c0.72-0.88,1.28-1.89,1.67-3.01c0.39-1.13,0.58-2.29,0.58-3.49c0-1.27-0.22-2.47-0.66-3.59
		c-0.44-1.13-1.04-2.11-1.8-2.96c-0.76-0.85-1.67-1.52-2.72-2.01c-1.06-0.49-2.2-0.74-3.44-0.74c-0.74,0-1.52,0.14-2.33,0.42
		c-0.81,0.28-1.57,0.67-2.27,1.16c-0.71,0.49-1.32,1.07-1.85,1.72c-0.53,0.65-0.9,1.37-1.11,2.14v7.24
		c0.35,0.84,0.81,1.64,1.37,2.38c0.56,0.74,1.19,1.38,1.88,1.9c0.69,0.53,1.44,0.95,2.25,1.27S559.64,264.83,560.49,264.83z"/>
	<path class="st1" d="M603.1,269.8c-1.34,0-2.58-0.22-3.73-0.66s-2.13-1.05-2.96-1.82c-0.83-0.77-1.48-1.69-1.96-2.75
		c-0.48-1.06-0.71-2.2-0.71-3.44c0-1.3,0.28-2.48,0.85-3.54c0.56-1.06,1.37-1.97,2.41-2.75c1.04-0.77,2.27-1.38,3.7-1.8
		c1.43-0.42,3-0.64,4.73-0.64c1.3,0,2.59,0.11,3.86,0.34c1.27,0.23,2.41,0.54,3.44,0.93v-1.9c0-2.04-0.58-3.64-1.75-4.78
		s-2.84-1.72-5.02-1.72c-1.48,0-2.93,0.27-4.36,0.82c-1.43,0.55-2.9,1.33-4.41,2.35l-1.8-3.7c3.56-2.4,7.26-3.59,11.1-3.59
		c3.81,0,6.77,0.97,8.88,2.91s3.17,4.72,3.17,8.35v9.99c0,1.23,0.51,1.87,1.53,1.9v4.97c-0.56,0.11-1.05,0.18-1.45,0.21
		c-0.41,0.03-0.8,0.05-1.19,0.05c-1.13,0-2-0.28-2.62-0.84c-0.62-0.56-1-1.29-1.14-2.17l-0.16-1.75c-1.23,1.62-2.76,2.87-4.57,3.73
		C607.12,269.37,605.17,269.8,603.1,269.8z M604.68,265.52c1.41,0,2.74-0.26,3.99-0.77c1.25-0.51,2.23-1.22,2.93-2.14
		c0.74-0.63,1.11-1.3,1.11-2.01v-3.65c-0.99-0.39-2.03-0.69-3.15-0.9c-1.11-0.21-2.19-0.32-3.25-0.32c-2.08,0-3.78,0.45-5.1,1.35
		c-1.32,0.9-1.98,2.09-1.98,3.57c0,1.38,0.51,2.53,1.53,3.46S603.1,265.52,604.68,265.52z"/>
	<path class="st1" d="M641.42,237.08v-6.4h5.82v6.4H641.42z M641.42,269.27v-27.65h5.82v27.65H641.42z"/>
	<path class="st1" d="M694.86,269.27h-5.81v-15.49c0-2.61-0.42-4.5-1.24-5.68c-0.83-1.18-2.05-1.77-3.68-1.77
		c-0.84,0-1.69,0.16-2.54,0.48s-1.64,0.77-2.38,1.35c-0.74,0.58-1.4,1.27-1.98,2.06c-0.58,0.79-1.03,1.67-1.35,2.62v16.44h-5.82
		v-27.65h5.29v5.55c1.06-1.87,2.59-3.34,4.6-4.41c2.01-1.07,4.23-1.61,6.66-1.61c1.66,0,3.01,0.3,4.07,0.9
		c1.06,0.6,1.89,1.42,2.51,2.46s1.05,2.24,1.3,3.59c0.25,1.36,0.37,2.79,0.37,4.31V269.27z"/>
	<path class="st1" d="M732.61,267.85c-0.74,0.35-1.76,0.75-3.07,1.19s-2.7,0.66-4.18,0.66c-0.92,0-1.78-0.12-2.59-0.37
		c-0.81-0.25-1.52-0.62-2.14-1.11c-0.62-0.49-1.1-1.14-1.45-1.93c-0.35-0.79-0.53-1.75-0.53-2.88v-17.29h-3.65v-4.49h3.65v-9.09
		h5.82v9.09h6.03v4.49h-6.03v15.44c0.07,0.99,0.38,1.7,0.93,2.14c0.54,0.44,1.22,0.66,2.03,0.66s1.59-0.14,2.33-0.42
		c0.74-0.28,1.29-0.51,1.64-0.69L732.61,267.85z"/>
	<path class="st1" d="M752.49,237.08v-6.4h5.82v6.4H752.49z M752.49,269.27v-27.65h5.82v27.65H752.49z"/>
	<path class="st1" d="M805.93,269.27h-5.81v-15.49c0-2.61-0.42-4.5-1.24-5.68c-0.83-1.18-2.05-1.77-3.68-1.77
		c-0.84,0-1.69,0.16-2.54,0.48s-1.64,0.77-2.38,1.35c-0.74,0.58-1.4,1.27-1.98,2.06c-0.58,0.79-1.03,1.67-1.35,2.62v16.44h-5.82
		v-27.65h5.29v5.55c1.06-1.87,2.59-3.34,4.6-4.41c2.01-1.07,4.23-1.61,6.66-1.61c1.66,0,3.01,0.3,4.07,0.9
		c1.06,0.6,1.89,1.42,2.51,2.46c0.62,1.04,1.05,2.24,1.3,3.59c0.25,1.36,0.37,2.79,0.37,4.31V269.27z"/>
	<path class="st1" d="M839.49,269.54c-1.87,0-3.58-0.38-5.13-1.14c-1.55-0.76-2.88-1.79-3.99-3.09c-1.11-1.3-1.97-2.8-2.59-4.49
		c-0.62-1.69-0.93-3.47-0.93-5.34c0-1.97,0.32-3.83,0.95-5.58c0.63-1.74,1.52-3.26,2.64-4.55s2.48-2.31,4.04-3.07
		c1.57-0.76,3.31-1.14,5.21-1.14c2.22,0,4.17,0.53,5.84,1.59c1.67,1.06,3.06,2.43,4.15,4.12v-5.23h5.13v26.85
		c0,2.01-0.37,3.79-1.11,5.34c-0.74,1.55-1.77,2.86-3.09,3.94c-1.32,1.07-2.88,1.89-4.68,2.46c-1.8,0.56-3.73,0.84-5.81,0.84
		c-3.07,0-5.61-0.52-7.64-1.56c-2.03-1.04-3.73-2.49-5.1-4.36l3.28-3.07c1.06,1.48,2.42,2.61,4.1,3.38
		c1.67,0.77,3.46,1.16,5.37,1.16c1.2,0,2.33-0.16,3.41-0.48c1.08-0.32,2.02-0.81,2.83-1.48c0.81-0.67,1.45-1.52,1.93-2.54
		c0.48-1.02,0.72-2.24,0.72-3.65v-4.23c-0.99,1.69-2.34,3-4.07,3.91C843.21,269.08,841.4,269.54,839.49,269.54z M841.4,264.83
		c0.88,0,1.73-0.15,2.54-0.45c0.81-0.3,1.56-0.7,2.25-1.21c0.69-0.51,1.28-1.09,1.77-1.75c0.49-0.65,0.85-1.35,1.06-2.09v-7.24
		c-0.35-0.88-0.81-1.68-1.38-2.41c-0.56-0.72-1.21-1.35-1.93-1.88c-0.72-0.53-1.49-0.94-2.3-1.24c-0.81-0.3-1.62-0.45-2.43-0.45
		c-1.27,0-2.4,0.27-3.41,0.82c-1,0.55-1.86,1.27-2.56,2.17c-0.71,0.9-1.25,1.91-1.64,3.04c-0.39,1.13-0.58,2.29-0.58,3.49
		c0,1.27,0.22,2.46,0.66,3.57c0.44,1.11,1.05,2.08,1.82,2.91c0.77,0.83,1.68,1.49,2.72,1.98
		C839.03,264.59,840.16,264.83,841.4,264.83z"/>
	<path class="st1" d="M877.4,269.27v-6.77h4.81v6.77H877.4z"/>
	<path class="st1" d="M948.6,269.8c-2.11,0-4.03-0.5-5.73-1.51c-1.71-1-3.06-2.35-4.04-4.04v5.02h-5.13v-38.59h5.82v16.18
		c1.09-1.76,2.46-3.15,4.1-4.18c1.64-1.02,3.57-1.53,5.79-1.53c1.83,0,3.51,0.4,5.02,1.19s2.81,1.85,3.89,3.17
		c1.07,1.32,1.9,2.85,2.48,4.6c0.58,1.74,0.87,3.57,0.87,5.47c0,1.97-0.33,3.82-1,5.55c-0.67,1.73-1.59,3.23-2.75,4.52
		c-1.16,1.29-2.55,2.3-4.15,3.04C952.16,269.43,950.44,269.8,948.6,269.8z M947.07,264.83c1.27,0,2.43-0.26,3.49-0.77
		c1.06-0.51,1.97-1.19,2.72-2.03c0.76-0.85,1.35-1.82,1.77-2.93c0.42-1.11,0.63-2.28,0.63-3.52c0-1.23-0.2-2.42-0.61-3.57
		c-0.41-1.14-0.97-2.15-1.69-3.01c-0.72-0.86-1.59-1.56-2.59-2.09c-1-0.53-2.11-0.79-3.31-0.79c-1.8,0-3.39,0.58-4.78,1.74
		c-1.39,1.16-2.46,2.57-3.2,4.23v7.3c0.21,0.81,0.58,1.54,1.11,2.19c0.53,0.65,1.15,1.22,1.85,1.72c0.7,0.5,1.46,0.87,2.27,1.14
		C945.56,264.7,946.33,264.83,947.07,264.83z"/>
	<path class="st1" d="M982.81,230.68h5.81v30.61c0,1.02,0.27,1.82,0.79,2.41c0.53,0.58,1.27,0.87,2.22,0.87
		c0.39,0,0.84-0.07,1.35-0.21c0.51-0.14,1-0.3,1.45-0.48l0.85,4.55c-0.85,0.39-1.85,0.7-3.01,0.93c-1.16,0.23-2.2,0.34-3.12,0.34
		c-2.01,0-3.57-0.54-4.68-1.64c-1.11-1.09-1.66-2.64-1.66-4.65V230.68z"/>
	<path class="st1" d="M1014.52,237.08v-6.4h5.82v6.4H1014.52z M1014.52,269.27v-27.65h5.82v27.65H1014.52z"/>
	<path class="st1" d="M1067.97,269.27h-5.81v-15.49c0-2.61-0.42-4.5-1.24-5.68c-0.83-1.18-2.05-1.77-3.68-1.77
		c-0.84,0-1.69,0.16-2.54,0.48s-1.64,0.77-2.38,1.35c-0.74,0.58-1.4,1.27-1.98,2.06c-0.58,0.79-1.03,1.67-1.35,2.62v16.44h-5.82
		v-27.65h5.29v5.55c1.06-1.87,2.59-3.34,4.6-4.41c2.01-1.07,4.23-1.61,6.66-1.61c1.66,0,3.01,0.3,4.07,0.9
		c1.06,0.6,1.89,1.42,2.51,2.46s1.05,2.24,1.3,3.59c0.25,1.36,0.37,2.79,0.37,4.31V269.27z"/>
	<path class="st1" d="M1101.85,269.8c-1.87,0-3.59-0.38-5.18-1.14c-1.59-0.76-2.96-1.79-4.12-3.09c-1.16-1.3-2.07-2.83-2.72-4.57
		c-0.65-1.75-0.98-3.62-0.98-5.63c0-1.94,0.31-3.76,0.93-5.47c0.62-1.71,1.48-3.22,2.59-4.52c1.11-1.3,2.41-2.33,3.91-3.09
		c1.5-0.76,3.14-1.14,4.94-1.14c2.22,0,4.18,0.54,5.87,1.61c1.69,1.08,3.01,2.44,3.96,4.1v-16.18h5.81v31.72
		c0,0.67,0.11,1.15,0.34,1.43c0.23,0.28,0.64,0.44,1.24,0.48v4.97c-0.6,0.11-1.08,0.18-1.45,0.21c-0.37,0.03-0.68,0.05-0.93,0.05
		c-1.16,0-2.11-0.3-2.86-0.9c-0.74-0.6-1.15-1.38-1.21-2.33l-0.11-2.06c-1.02,1.73-2.42,3.09-4.18,4.07
		C1105.96,269.31,1104,269.8,1101.85,269.8z M1103.28,264.83c0.85,0,1.69-0.14,2.54-0.42c0.85-0.28,1.62-0.67,2.33-1.16
		c0.71-0.49,1.31-1.08,1.82-1.75c0.51-0.67,0.87-1.39,1.08-2.17v-7.24c-0.32-0.88-0.77-1.69-1.35-2.43
		c-0.58-0.74-1.24-1.38-1.98-1.9c-0.74-0.53-1.53-0.93-2.35-1.22c-0.83-0.28-1.67-0.42-2.51-0.42c-1.16,0-2.23,0.26-3.2,0.79
		s-1.81,1.23-2.51,2.11c-0.71,0.88-1.26,1.89-1.66,3.01c-0.41,1.13-0.61,2.29-0.61,3.49c0,1.27,0.22,2.47,0.66,3.6
		c0.44,1.13,1.05,2.11,1.82,2.96c0.77,0.85,1.66,1.52,2.67,2.01C1101.03,264.59,1102.12,264.83,1103.28,264.83z"/>
	<path class="st1" d="M1150.17,269.8c-2.22,0-4.43-0.36-6.63-1.08c-2.2-0.72-4.1-1.75-5.68-3.09l2.33-3.7
		c1.65,1.2,3.29,2.11,4.92,2.72c1.62,0.62,3.28,0.92,4.97,0.92c1.73,0,3.09-0.33,4.1-1c1-0.67,1.51-1.62,1.51-2.86
		c0-1.16-0.56-2.01-1.69-2.54c-1.13-0.53-2.89-1.11-5.29-1.74c-1.73-0.46-3.21-0.9-4.44-1.32c-1.23-0.42-2.24-0.92-3.01-1.48
		c-0.77-0.56-1.34-1.22-1.69-1.96c-0.35-0.74-0.53-1.64-0.53-2.7c0-1.41,0.27-2.66,0.82-3.75s1.3-2.02,2.27-2.78
		c0.97-0.76,2.11-1.33,3.41-1.72c1.3-0.39,2.71-0.58,4.23-0.58c2.08,0,4.02,0.32,5.82,0.95c1.8,0.63,3.4,1.55,4.81,2.75l-2.48,3.49
		c-2.57-2.04-5.3-3.07-8.19-3.07c-1.48,0-2.72,0.31-3.73,0.93c-1,0.62-1.51,1.6-1.51,2.93c0,0.56,0.1,1.04,0.32,1.43
		c0.21,0.39,0.55,0.72,1.03,1c0.48,0.28,1.09,0.54,1.85,0.77c0.76,0.23,1.7,0.49,2.83,0.77c1.87,0.46,3.48,0.92,4.84,1.38
		c1.36,0.46,2.47,1,3.36,1.61c0.88,0.62,1.53,1.34,1.96,2.17c0.42,0.83,0.63,1.82,0.63,2.99c0,2.64-0.99,4.73-2.99,6.26
		C1156.29,269.04,1153.59,269.8,1150.17,269.8z"/>
	<path class="st1" d="M1181.56,269.27v-6.77h4.81v6.77H1181.56z"/>
	<path class="st1" d="M1248.28,269.8c-2.22,0-4.43-0.36-6.63-1.08c-2.2-0.72-4.1-1.75-5.68-3.09l2.33-3.7
		c1.65,1.2,3.29,2.11,4.92,2.72c1.62,0.62,3.28,0.92,4.97,0.92c1.73,0,3.09-0.33,4.1-1c1-0.67,1.51-1.62,1.51-2.86
		c0-1.16-0.56-2.01-1.69-2.54c-1.13-0.53-2.89-1.11-5.29-1.74c-1.73-0.46-3.21-0.9-4.44-1.32c-1.23-0.42-2.24-0.92-3.01-1.48
		c-0.77-0.56-1.34-1.22-1.69-1.96c-0.35-0.74-0.53-1.64-0.53-2.7c0-1.41,0.27-2.66,0.82-3.75s1.3-2.02,2.27-2.78
		c0.97-0.76,2.11-1.33,3.41-1.72c1.3-0.39,2.71-0.58,4.23-0.58c2.08,0,4.02,0.32,5.82,0.95c1.8,0.63,3.4,1.55,4.81,2.75l-2.48,3.49
		c-2.57-2.04-5.3-3.07-8.19-3.07c-1.48,0-2.72,0.31-3.73,0.93c-1,0.62-1.51,1.6-1.51,2.93c0,0.56,0.11,1.04,0.32,1.43
		c0.21,0.39,0.55,0.72,1.03,1c0.48,0.28,1.09,0.54,1.85,0.77c0.76,0.23,1.7,0.49,2.83,0.77c1.87,0.46,3.48,0.92,4.84,1.38
		c1.36,0.46,2.47,1,3.36,1.61c0.88,0.62,1.53,1.34,1.96,2.17c0.42,0.83,0.63,1.82,0.63,2.99c0,2.64-0.99,4.73-2.99,6.26
		C1254.4,269.04,1251.7,269.8,1248.28,269.8z"/>
	<path class="st1" d="M1305.11,269.27h-5.81v-15.49c0-2.54-0.45-4.41-1.35-5.63c-0.9-1.22-2.19-1.82-3.89-1.82
		c-0.81,0-1.62,0.16-2.43,0.48s-1.58,0.77-2.3,1.35c-0.72,0.58-1.37,1.27-1.93,2.06c-0.56,0.79-0.99,1.67-1.27,2.62v16.44h-5.82
		v-38.59h5.82v16.49c1.06-1.9,2.49-3.38,4.31-4.44c1.81-1.06,3.8-1.59,5.95-1.59c1.73,0,3.15,0.31,4.26,0.93
		c1.11,0.62,2,1.44,2.67,2.46c0.67,1.02,1.14,2.21,1.4,3.57c0.27,1.36,0.4,2.79,0.4,4.31V269.27z"/>
	<path class="st1" d="M1336.24,269.8c-2.89,0-5.07-0.94-6.55-2.83c-1.48-1.88-2.22-4.69-2.22-8.43v-16.92h5.82v15.75
		c0,4.97,1.76,7.45,5.29,7.45c1.66,0,3.22-0.51,4.7-1.53c1.48-1.02,2.63-2.5,3.44-4.44v-17.23h5.81v20.78
		c0,0.67,0.11,1.15,0.34,1.43c0.23,0.28,0.64,0.44,1.24,0.48v4.97c-0.6,0.11-1.09,0.18-1.48,0.21c-0.39,0.03-0.76,0.05-1.11,0.05
		c-1.06,0-1.96-0.29-2.69-0.87c-0.74-0.58-1.13-1.33-1.16-2.25l-0.11-2.75c-1.23,2.01-2.84,3.53-4.81,4.57
		C1340.77,269.28,1338.6,269.8,1336.24,269.8z"/>
	<path class="st1" d="M1391.16,267.85c-0.74,0.35-1.76,0.75-3.07,1.19c-1.3,0.44-2.7,0.66-4.18,0.66c-0.92,0-1.78-0.12-2.59-0.37
		c-0.81-0.25-1.52-0.62-2.14-1.11c-0.62-0.49-1.1-1.14-1.45-1.93c-0.35-0.79-0.53-1.75-0.53-2.88v-17.29h-3.65v-4.49h3.65v-9.09
		h5.82v9.09h6.03v4.49h-6.03v15.44c0.07,0.99,0.38,1.7,0.93,2.14c0.54,0.44,1.22,0.66,2.03,0.66s1.59-0.14,2.33-0.42
		c0.74-0.28,1.29-0.51,1.64-0.69L1391.16,267.85z"/>
	<path class="st1" d="M1426.42,267.85c-0.74,0.35-1.76,0.75-3.07,1.19c-1.3,0.44-2.7,0.66-4.18,0.66c-0.92,0-1.78-0.12-2.59-0.37
		c-0.81-0.25-1.52-0.62-2.14-1.11c-0.62-0.49-1.1-1.14-1.45-1.93c-0.35-0.79-0.53-1.75-0.53-2.88v-17.29h-3.65v-4.49h3.65v-9.09
		h5.82v9.09h6.03v4.49h-6.03v15.44c0.07,0.99,0.38,1.7,0.93,2.14c0.54,0.44,1.22,0.66,2.03,0.66s1.59-0.14,2.33-0.42
		c0.74-0.28,1.29-0.51,1.64-0.69L1426.42,267.85z"/>
	<path class="st1" d="M1458.14,269.8c-2.15,0-4.11-0.38-5.87-1.14c-1.76-0.76-3.27-1.79-4.52-3.09c-1.25-1.3-2.22-2.82-2.91-4.55
		c-0.69-1.73-1.03-3.56-1.03-5.5c0-1.94,0.34-3.78,1.03-5.52c0.69-1.74,1.66-3.28,2.91-4.6c1.25-1.32,2.76-2.36,4.52-3.12
		c1.76-0.76,3.73-1.14,5.92-1.14c2.15,0,4.1,0.39,5.84,1.16c1.75,0.77,3.23,1.81,4.47,3.09c1.23,1.29,2.18,2.79,2.83,4.49
		c0.65,1.71,0.98,3.5,0.98,5.37c0,0.42-0.02,0.82-0.05,1.19c-0.04,0.37-0.07,0.68-0.11,0.93H1450c0.11,1.23,0.4,2.34,0.87,3.33
		c0.48,0.99,1.09,1.84,1.85,2.56c0.76,0.72,1.62,1.28,2.59,1.66c0.97,0.39,1.98,0.58,3.04,0.58c0.78,0,1.54-0.1,2.3-0.29
		c0.76-0.19,1.45-0.48,2.09-0.85c0.63-0.37,1.2-0.82,1.69-1.35c0.49-0.53,0.88-1.11,1.16-1.75l4.97,1.43
		c-0.95,2.08-2.53,3.78-4.73,5.1C1463.63,269.14,1461.07,269.8,1458.14,269.8z M1466.55,253.36c-0.11-1.16-0.4-2.24-0.87-3.23
		c-0.48-0.99-1.08-1.82-1.82-2.51c-0.74-0.69-1.6-1.22-2.59-1.61c-0.99-0.39-2.03-0.58-3.12-0.58c-1.09,0-2.12,0.19-3.09,0.58
		c-0.97,0.39-1.82,0.93-2.56,1.61c-0.74,0.69-1.34,1.52-1.8,2.51c-0.46,0.99-0.74,2.06-0.85,3.23H1466.55z"/>
	<path class="st1" d="M1508.47,246.65c-2.25,0.07-4.25,0.59-6,1.56c-1.74,0.97-2.99,2.35-3.73,4.15v16.92h-5.82v-27.65h5.39v6.18
		c0.95-1.9,2.19-3.43,3.73-4.57c1.53-1.15,3.18-1.77,4.94-1.88c0.35,0,0.64,0,0.87,0c0.23,0,0.43,0.02,0.61,0.05V246.65z"/>
	<path class="st1" d="M1538.6,269.8c-2.22,0-4.43-0.36-6.63-1.08c-2.2-0.72-4.1-1.75-5.68-3.09l2.33-3.7
		c1.65,1.2,3.29,2.11,4.92,2.72c1.62,0.62,3.28,0.92,4.97,0.92c1.73,0,3.09-0.33,4.1-1c1-0.67,1.51-1.62,1.51-2.86
		c0-1.16-0.56-2.01-1.69-2.54c-1.13-0.53-2.89-1.11-5.29-1.74c-1.73-0.46-3.21-0.9-4.44-1.32c-1.23-0.42-2.24-0.92-3.01-1.48
		c-0.77-0.56-1.34-1.22-1.69-1.96c-0.35-0.74-0.53-1.64-0.53-2.7c0-1.41,0.27-2.66,0.82-3.75s1.3-2.02,2.27-2.78
		c0.97-0.76,2.11-1.33,3.41-1.72c1.3-0.39,2.71-0.58,4.23-0.58c2.08,0,4.02,0.32,5.82,0.95c1.8,0.63,3.4,1.55,4.81,2.75l-2.48,3.49
		c-2.57-2.04-5.3-3.07-8.19-3.07c-1.48,0-2.72,0.31-3.73,0.93c-1,0.62-1.51,1.6-1.51,2.93c0,0.56,0.1,1.04,0.32,1.43
		c0.21,0.39,0.55,0.72,1.03,1c0.48,0.28,1.09,0.54,1.85,0.77c0.76,0.23,1.7,0.49,2.83,0.77c1.87,0.46,3.48,0.92,4.84,1.38
		c1.36,0.46,2.47,1,3.36,1.61c0.88,0.62,1.53,1.34,1.96,2.17c0.42,0.83,0.63,1.82,0.63,2.99c0,2.64-0.99,4.73-2.99,6.26
		C1544.72,269.04,1542.02,269.8,1538.6,269.8z"/>
	<path class="st1" d="M1571.99,269.27v-5.79h4.12v5.79H1571.99z"/>
</g>
</svg>
